<svg xmlns="http://www.w3.org/2000/svg" xmlns:xlink="http://www.w3.org/1999/xlink" contentStyleType="text/css" height="3258.3333px" preserveAspectRatio="none" style="width:1137px;height:3258px;background:#FFFDE7;" version="1.1" viewBox="0 0 1137 3258" width="1137.5px" zoomAndPan="magnify"><title>&lt;color:#B8860B&gt;&lt;size:28&gt;PaddyScan&lt;/size&gt;&lt;/color&gt;  &lt;size:20&gt;Use Case Diagram&lt;/size&gt;</title><defs><filter height="300%" id="fep6vfg6j7yth" width="300%" x="-1" y="-1"><feGaussianBlur result="blurOut" stdDeviation="4.166666666666667"/><feColorMatrix in="blurOut" result="blurOut2" type="matrix" values="0 0 0 0 0 0 0 0 0 0 0 0 0 0 0 0 0 0 .4 0"/><feOffset dx="8.333333333333334" dy="8.333333333333334" in="blurOut2" result="blurOut3"/><feBlend in="SourceGraphic" in2="blurOut3" mode="normal"/></filter></defs><g><rect fill="#FFFDE7" height="3258.3333" style="stroke:none;stroke-width:2.0833333333333335;" width="1137.5" x="0" y="0"/><text fill="#B8860B" font-family="Arial" font-size="58.3333" font-weight="bold" lengthAdjust="spacing" textLength="314.4816" x="199.6094" y="88.0493">PaddyScan</text><text fill="#000000" font-family="Arial" font-size="29.1667" font-weight="bold" lengthAdjust="spacing" textLength="16.2069" x="514.091" y="94.2301">&#160;&#160;</text><text fill="#000000" font-family="Arial" font-size="41.6667" font-weight="bold" lengthAdjust="spacing" textLength="365.9261" x="530.2979" y="91.5812">Use Case Diagram</text><!--cluster P1--><g id="cluster_P1"><path d="M498.9583,1954.5776 L909.2434,1954.5776 A18.75,18.75 0 0 1 921.7434,1967.0776 L936.3268,2032.8033 L1078.125,2032.8033 A12.5,12.5 0 0 1 1090.625,2045.3033 L1090.625,3154.5776 A12.5,12.5 0 0 1 1078.125,3167.0776 L498.9583,3167.0776 A12.5,12.5 0 0 1 486.4583,3154.5776 L486.4583,1967.0776 A12.5,12.5 0 0 1 498.9583,1954.5776 " fill="#FFFDE7" filter="url(#fep6vfg6j7yth)" style="stroke:#F57F17;stroke-width:4.166666666666667;"/><line style="stroke:#F57F17;stroke-width:4.166666666666667;" x1="486.4583" x2="936.3268" y1="2032.8033" y2="2032.8033"/><path d="M512.8872,1979.5047 C512.5625,1979.5047 512.3264,1979.7408 512.3264,1980.0655 L512.3264,2002.5846 C512.3264,2002.9092 512.5625,2003.1454 512.8872,2003.1454 L526.5521,2003.1454 C526.8767,2003.1454 527.1128,2002.9092 527.1128,2002.5846 L527.1128,1980.0655 C527.1128,1979.7408 526.8767,1979.5047 526.5521,1979.5047 L512.8872,1979.5047 M515.2778,1982.4561 L524.1319,1982.4561 L524.1319,1997.2131 L515.2778,1997.2131 L515.2778,1982.4561 M519.7049,1998.6888 C520.5313,1998.6888 521.1806,1999.3381 521.1806,2000.1645 C521.1806,2000.9908 520.5313,2001.6402 519.7049,2001.6402 C518.8785,2001.6402 518.2292,2000.9908 518.2292,2000.1645 C518.2292,1999.3381 518.8785,1998.6888 519.7049,1998.6888 " fill="#000000" style="stroke:;stroke-width:0.0;stroke-dasharray:;"/><text fill="#000000" font-family="Arial" font-size="35.4167" font-weight="bold" lengthAdjust="spacing" textLength="350.3276" x="554.7492" y="2004.4647">Scanning &amp; Analysis</text></g><!--cluster P2--><g id="cluster_P2"><path d="M479.1667,148.3276 L779.1897,148.3276 A18.75,18.75 0 0 1 791.6897,160.8276 L806.2731,226.5533 L1097.9167,226.5533 A12.5,12.5 0 0 1 1110.4167,239.0533 L1110.4167,621.2443 A12.5,12.5 0 0 1 1097.9167,633.7443 L479.1667,633.7443 A12.5,12.5 0 0 1 466.6667,621.2443 L466.6667,160.8276 A12.5,12.5 0 0 1 479.1667,148.3276 " fill="#FFFDE7" filter="url(#fep6vfg6j7yth)" style="stroke:#F57F17;stroke-width:4.166666666666667;"/><line style="stroke:#F57F17;stroke-width:4.166666666666667;" x1="466.6667" x2="806.2731" y1="226.5533" y2="226.5533"/><path d="M489.849,173.2547 C489.6719,173.2547 489.5833,173.3728 489.5833,173.5204 L489.5833,190.6679 C489.5833,190.8155 489.7014,190.9336 489.849,190.9336 L507.2917,190.9336 L513.1944,196.8363 L513.1944,173.4908 C513.1944,173.3138 513.0764,173.2252 512.9288,173.2252 L489.8785,173.2252 " fill="#000000" style="stroke:;stroke-width:0.0;stroke-dasharray:;"/><text fill="#000000" font-family="Arial" font-size="35.4167" font-weight="bold" lengthAdjust="spacing" textLength="240.0655" x="534.9575" y="198.2147">AI Elaboration</text></g><!--cluster P3--><g id="cluster_P3"><path d="M523.9583,1496.2443 L705.9374,1496.2443 A18.75,18.75 0 0 1 718.4374,1508.7443 L733.0207,1574.47 L1053.125,1574.47 A12.5,12.5 0 0 1 1065.625,1586.97 L1065.625,1892.0776 A12.5,12.5 0 0 1 1053.125,1904.5776 L523.9583,1904.5776 A12.5,12.5 0 0 1 511.4583,1892.0776 L511.4583,1508.7443 A12.5,12.5 0 0 1 523.9583,1496.2443 " fill="#FFFDE7" filter="url(#fep6vfg6j7yth)" style="stroke:#F57F17;stroke-width:4.166666666666667;"/><line style="stroke:#F57F17;stroke-width:4.166666666666667;" x1="511.4583" x2="733.0207" y1="1574.47" y2="1574.47"/><path d="M535.8507,1521.1714 C535.0243,1521.1714 534.375,1521.8207 534.375,1522.6471 C534.375,1523.4735 535.0243,1524.1228 535.8507,1524.1228 C536.6771,1524.1228 537.3264,1523.4735 537.3264,1522.6471 C537.3264,1521.8207 536.6771,1521.1714 535.8507,1521.1714 M540.2778,1521.1714 L540.2778,1524.1228 L557.9861,1524.1228 L557.9861,1521.1714 L540.2778,1521.1714 M535.8507,1527.0742 C535.0243,1527.0742 534.375,1527.7235 534.375,1528.5499 C534.375,1529.3763 535.0243,1530.0256 535.8507,1530.0256 C536.6771,1530.0256 537.3264,1529.3763 537.3264,1528.5499 C537.3264,1527.7235 536.6771,1527.0742 535.8507,1527.0742 M540.2778,1527.0742 L540.2778,1530.0256 L557.9861,1530.0256 L557.9861,1527.0742 L540.2778,1527.0742 M535.8507,1532.977 C535.0243,1532.977 534.375,1533.6263 534.375,1534.4527 C534.375,1535.279 535.0243,1535.9283 535.8507,1535.9283 C536.6771,1535.9283 537.3264,1535.279 537.3264,1534.4527 C537.3264,1533.6263 536.6771,1532.977 535.8507,1532.977 M540.2778,1532.977 L540.2778,1535.9283 L557.9861,1535.9283 L557.9861,1532.977 L540.2778,1532.977 M535.8507,1538.8797 C535.0243,1538.8797 534.375,1539.529 534.375,1540.3554 C534.375,1541.1818 535.0243,1541.8311 535.8507,1541.8311 C536.6771,1541.8311 537.3264,1541.1818 537.3264,1540.3554 C537.3264,1539.529 536.6771,1538.8797 535.8507,1538.8797 M540.2778,1538.8797 L540.2778,1541.8311 L557.9861,1541.8311 L557.9861,1538.8797 L540.2778,1538.8797 " fill="#000000" style="stroke:;stroke-width:0.0;stroke-dasharray:;"/><text fill="#000000" font-family="Arial" font-size="35.4167" font-weight="bold" lengthAdjust="spacing" textLength="122.0215" x="579.7492" y="1546.1314">History</text></g><!--cluster P4--><g id="cluster_P4"><path d="M512.5,683.7443 L712.1701,683.7443 A18.75,18.75 0 0 1 724.6701,696.2443 L739.2534,761.97 L1064.5833,761.97 A12.5,12.5 0 0 1 1077.0833,774.47 L1077.0833,1433.7443 A12.5,12.5 0 0 1 1064.5833,1446.2443 L512.5,1446.2443 A12.5,12.5 0 0 1 500,1433.7443 L500,696.2443 A12.5,12.5 0 0 1 512.5,683.7443 " fill="#FFFDE7" filter="url(#fep6vfg6j7yth)" style="stroke:#F57F17;stroke-width:4.166666666666667;"/><line style="stroke:#F57F17;stroke-width:4.166666666666667;" x1="500" x2="739.2534" y1="761.97" y2="761.97"/><path d="M533.2465,708.6714 L531.7708,712.1836 C531.4757,712.2721 531.2101,712.4197 530.9444,712.5672 L527.4323,711.0915 L525.3073,713.2165 L526.783,716.7287 C526.6354,717.0238 526.5174,717.2599 526.3993,717.5551 L522.8872,719.0308 L522.8872,721.9822 L526.3993,723.4579 C526.5174,723.753 526.6354,723.9891 526.783,724.2842 L525.3073,727.7964 L527.4323,729.9214 L530.9444,728.4457 C531.2101,728.5638 531.4757,728.7113 531.7708,728.8294 L533.2465,732.3415 L536.1979,732.3415 L537.6736,728.8294 C537.9392,728.7113 538.2344,728.5933 538.5,728.4457 L542.0122,729.9214 L544.1372,727.7964 L542.6615,724.2842 C542.7795,724.0186 542.9271,723.7235 543.0451,723.4579 L546.5573,721.9822 L546.5573,719.0308 L543.0451,717.5551 C542.9566,717.2895 542.809,716.9943 542.6615,716.7287 L544.1372,713.2165 L542.0122,711.0915 L538.5,712.5672 C538.2344,712.4492 537.9392,712.3016 537.6736,712.1836 L536.1979,708.6714 L533.2465,708.6714 M534.7222,716.0499 C537.1719,716.0499 539.1493,718.0273 539.1493,720.477 C539.1493,722.9266 537.1719,724.904 534.7222,724.904 C532.2726,724.904 530.2951,722.9266 530.2951,720.477 C530.2951,718.0273 532.2726,716.0499 534.7222,716.0499 " fill="#000000" style="stroke:;stroke-width:0.0;stroke-dasharray:;"/><text fill="#000000" font-family="Arial" font-size="35.4167" font-weight="bold" lengthAdjust="spacing" textLength="139.7125" x="568.2909" y="733.6314">Settings</text></g><g id="elem_UC1"><ellipse cx="788.9632" cy="2117.5786" fill="#FFF9C4" filter="url(#fep6vfg6j7yth)" rx="269.1716" ry="58.8343" style="stroke:#F9A825;stroke-width:4.166666666666667;"/><text fill="#1A1A1A" font-family="Arial" font-size="31.25" font-weight="bold" lengthAdjust="spacing" textLength="361.2213" x="617.0348" y="2124.7569">Capture Image (Camera)</text></g><g id="elem_UC2"><ellipse cx="788.2775" cy="2293.6915" fill="#FFF9C4" filter="url(#fep6vfg6j7yth)" rx="248.6942" ry="54.7388" style="stroke:#F9A825;stroke-width:4.166666666666667;"/><path d="M626.7531,2278.8462 L626.7531,2299.6795 L647.5864,2299.6795 L647.5864,2278.8462 L626.7531,2278.8462 M629.3572,2281.4504 L644.9822,2281.4504 L644.9822,2289.2629 L642.3781,2286.6587 L639.7739,2289.2629 L644.9822,2294.4712 L644.9822,2297.0754 L642.3781,2297.0754 L631.9614,2286.6587 L629.3572,2289.2629 L629.3572,2281.4504 " fill="#1A1A1A" style="stroke:;stroke-width:0.0;stroke-dasharray:;"/><text fill="#1A1A1A" font-family="Arial" font-size="31.25" font-weight="bold" lengthAdjust="spacing" textLength="284.8511" x="667.0342" y="2300.8697">Select from Gallery</text></g><g id="elem_UC3"><ellipse cx="788.3324" cy="2464.7441" fill="#FFF9C4" filter="url(#fep6vfg6j7yth)" rx="234.1657" ry="51.8331" style="stroke:#F9A825;stroke-width:4.166666666666667;"/><path d="M662.5818,2452.503 L660.7849,2454.378 L653.5453,2461.6176 L651.4359,2459.5863 L649.5609,2457.7113 L645.8891,2461.3832 L647.7641,2463.2582 L651.6703,2467.1645 L653.4672,2469.0395 L655.3422,2467.1645 L664.4568,2458.0499 L666.3318,2456.1749 L662.5818,2452.503 " fill="#1A1A1A" style="stroke:;stroke-width:0.0;stroke-dasharray:;"/><text fill="#1A1A1A" font-family="Arial" font-size="31.25" font-weight="bold" lengthAdjust="spacing" textLength="246.6888" x="686.1702" y="2471.9224">Classify Disease</text></g><g id="elem_UC4"><ellipse cx="788.4837" cy="2912.4827" fill="#FFF9C4" filter="url(#fep6vfg6j7yth)" rx="264.5254" ry="57.9051" style="stroke:#F9A825;stroke-width:4.166666666666667;"/><path d="M617.4175,2897.6374 C611.6883,2897.6374 607.0008,2902.3249 607.0008,2908.0541 C607.0008,2913.7833 611.6883,2918.4708 617.4175,2918.4708 C623.1466,2918.4708 627.8341,2913.7833 627.8341,2908.0541 C627.8341,2902.3249 623.1466,2897.6374 617.4175,2897.6374 M617.4175,2900.2416 C621.7404,2900.2416 625.23,2903.7312 625.23,2908.0541 C625.23,2912.377 621.7404,2915.8666 617.4175,2915.8666 C613.0945,2915.8666 609.605,2912.377 609.605,2908.0541 C609.605,2903.7312 613.0945,2900.2416 617.4175,2900.2416 M617.4175,2902.8458 C614.5529,2902.8458 612.2091,2905.1895 612.2091,2908.0541 C612.2091,2910.9187 614.5529,2913.2624 617.4175,2913.2624 C620.282,2913.2624 622.6258,2910.9187 622.6258,2908.0541 C622.6258,2905.1895 620.282,2902.8458 617.4175,2902.8458 M617.4175,2905.4499 C618.8758,2905.4499 620.0216,2906.5958 620.0216,2908.0541 C620.0216,2909.5124 618.8758,2910.6583 617.4175,2910.6583 C615.9591,2910.6583 614.8133,2909.5124 614.8133,2908.0541 C614.8133,2906.5958 615.9591,2905.4499 617.4175,2905.4499 " fill="#1A1A1A" style="stroke:;stroke-width:0.0;stroke-dasharray:;"/><text fill="#1A1A1A" font-family="Arial" font-size="31.25" font-weight="bold" lengthAdjust="spacing" textLength="324.7681" x="647.282" y="2919.661">Detect Affected Areas</text></g><g id="elem_UC5"><ellipse cx="788.7964" cy="3084.2119" fill="#FFF9C4" filter="url(#fep6vfg6j7yth)" rx="222.1297" ry="49.4259" style="stroke:#F9A825;stroke-width:4.166666666666667;"/><path d="M672.031,3069.3666 C667.005,3069.3666 662.9165,3073.4552 662.9165,3078.4812 C662.9165,3083.5073 667.005,3087.5958 672.031,3087.5958 C673.5675,3087.5958 675.0779,3087.2312 676.354,3086.5281 A2.6042,2.6042 0 0 0 676.6925,3086.8666 L679.2967,3089.4708 A2.6563,2.6563 0 1 0 683.0467,3085.7208 L680.4425,3083.1166 A2.6042,2.6042 0 0 0 680.0258,3082.7781 C680.729,3081.5021 681.1717,3080.0177 681.1717,3078.4552 C681.1717,3073.4291 677.0831,3069.3406 672.0571,3069.3406 M672.031,3071.9708 C675.6508,3071.9708 678.5415,3074.8614 678.5415,3078.4812 C678.5415,3080.2 677.9165,3081.7885 676.8227,3082.9604 C676.7967,3082.9864 676.7706,3083.0125 676.7446,3083.0385 A2.6042,2.6042 0 0 0 676.406,3083.3771 C675.2602,3084.4187 673.6977,3085.0177 672.005,3085.0177 C668.3852,3085.0177 665.4946,3082.1271 665.4946,3078.5073 C665.4946,3074.8875 668.3852,3071.9968 672.005,3071.9968 " fill="#1A1A1A" style="stroke:;stroke-width:0.0;stroke-dasharray:;"/><text fill="#1A1A1A" font-family="Arial" font-size="31.25" font-weight="bold" lengthAdjust="spacing" textLength="213.562" x="703.1976" y="3091.3902">Full Diagnosis</text></g><g id="elem_UC6"><ellipse cx="788.0856" cy="2686.2065" fill="#FFF9C4" filter="url(#fep6vfg6j7yth)" rx="207.8773" ry="49.3372" style="stroke:#F9A825;stroke-width:4.166666666666667;"/><path d="M672.5969,2671.3612 L672.5969,2689.5904 L693.4303,2689.5904 L693.4303,2686.9862 L675.2011,2686.9862 L675.2011,2671.3612 L672.5969,2671.3612 M685.6178,2671.3612 L685.6178,2684.382 L690.8261,2684.382 L690.8261,2671.3612 L685.6178,2671.3612 M677.8053,2676.5695 L677.8053,2684.382 L683.0136,2684.382 L683.0136,2676.5695 L677.8053,2676.5695 " fill="#1A1A1A" style="stroke:;stroke-width:0.0;stroke-dasharray:;"/><text fill="#1A1A1A" font-family="Arial" font-size="31.25" font-weight="bold" lengthAdjust="spacing" textLength="192.7795" x="712.8781" y="2693.3847">View Results</text></g><g id="elem_UC7"><ellipse cx="788.1476" cy="315.1238" fill="#FFF9C4" filter="url(#fep6vfg6j7yth)" rx="288.1476" ry="62.6295" style="stroke:#F9A825;stroke-width:4.166666666666667;"/><path d="M589.5235,300.2785 A1.3021,1.3021 0 0 0 589.1849,300.4348 L581.3724,304.341 A1.3021,1.3021 0 1 0 582.5183,306.6327 L590.3308,302.7265 A1.3021,1.3021 0 0 0 589.5235,300.2785 M592.1277,304.1848 A1.3021,1.3021 0 0 0 591.7891,304.341 L581.3724,309.5494 A1.3021,1.3021 0 1 0 582.5183,311.841 L592.9349,306.6327 A1.3021,1.3021 0 0 0 592.1277,304.1848 M592.1277,309.3931 A1.3021,1.3021 0 0 0 591.7891,309.5494 L583.9766,313.4556 A1.3021,1.3021 0 0 0 584.5495,315.9035 L589.7579,315.9035 A1.3021,1.3021 0 0 0 590.1745,313.2994 L592.9349,311.841 A1.3021,1.3021 0 0 0 592.1277,309.3931 M585.461,318.5077 A1.3021,1.3021 0 0 0 585.8777,321.1119 L588.4818,321.1119 A1.3021,1.3021 0 1 0 588.4818,318.5077 L585.8777,318.5077 A1.3021,1.3021 0 0 0 585.6433,318.5077 A1.3021,1.3021 0 0 0 585.487,318.5077 " fill="#1A1A1A" style="stroke:;stroke-width:0.0;stroke-dasharray:;"/><text fill="#1A1A1A" font-family="Arial" font-size="31.25" font-weight="bold" lengthAdjust="spacing" textLength="382.019" x="618.3203" y="322.3021">View AI Recommendation</text></g><g id="elem_UC8"><ellipse cx="788.8311" cy="548.5939" fill="#FFF9C4" filter="url(#fep6vfg6j7yth)" rx="231.5394" ry="51.3079" style="stroke:#F9A825;stroke-width:4.166666666666667;"/><path d="M665.5604,533.7486 L665.5604,536.3527 L649.9354,536.3527 L649.9354,538.9569 L665.5604,538.9569 L665.5604,541.5611 L670.7688,537.6548 L665.5604,533.7486 M655.1438,544.1652 L649.9354,548.0715 L655.1438,551.9777 L655.1438,549.3736 L670.7688,549.3736 L670.7688,546.7694 L655.1438,546.7694 L655.1438,544.1652 " fill="#1A1A1A" style="stroke:;stroke-width:0.0;stroke-dasharray:;"/><text fill="#1A1A1A" font-family="Arial" font-size="31.25" font-weight="bold" lengthAdjust="spacing" textLength="239.5935" x="690.2166" y="555.7721">Switch AI Model</text></g><g id="elem_UC9"><ellipse cx="788.1133" cy="1654.0753" fill="#FFF9C4" filter="url(#fep6vfg6j7yth)" rx="243.3216" ry="53.6643" style="stroke:#F9A825;stroke-width:4.166666666666667;"/><path d="M644.0416,1641.8342 C637.4531,1641.8342 633.5468,1649.6467 633.5468,1649.6467 C633.5468,1649.6467 637.4531,1657.4592 644.0416,1657.4592 C650.4739,1657.4592 654.3801,1649.6467 654.3801,1649.6467 C654.3801,1649.6467 650.4739,1641.8342 644.0416,1641.8342 M643.9635,1644.4383 C646.8541,1644.4383 649.1718,1646.7821 649.1718,1649.6467 C649.1718,1652.5373 646.8541,1654.855 643.9635,1654.855 C641.0989,1654.855 638.7551,1652.5373 638.7551,1649.6467 C638.7551,1646.7821 641.0989,1644.4383 643.9635,1644.4383 M643.9635,1647.0425 C642.5312,1647.0425 641.3593,1648.2144 641.3593,1649.6467 C641.3593,1651.079 642.5312,1652.2508 643.9635,1652.2508 C645.3958,1652.2508 646.5676,1651.079 646.5676,1649.6467 C646.5676,1649.3863 646.4635,1649.1519 646.4114,1648.9175 C646.2031,1649.3342 645.7864,1649.6467 645.2656,1649.6467 C644.5364,1649.6467 643.9635,1649.0738 643.9635,1648.3446 C643.9635,1647.8238 644.276,1647.4071 644.6926,1647.1988 C644.4583,1647.1206 644.2239,1647.0425 643.9635,1647.0425 " fill="#1A1A1A" style="stroke:;stroke-width:0.0;stroke-dasharray:;"/><text fill="#1A1A1A" font-family="Arial" font-size="31.25" font-weight="bold" lengthAdjust="spacing" textLength="270.9351" x="673.828" y="1661.2535">View Scan History</text></g><g id="elem_UC10"><ellipse cx="788.2955" cy="1821.6231" fill="#FFF9C4" filter="url(#fep6vfg6j7yth)" rx="209.1289" ry="49.3372" style="stroke:#F9A825;stroke-width:4.166666666666667;"/><path d="M679.7343,1806.7779 C678.3021,1806.7779 677.1302,1807.9497 677.1302,1809.382 L674.526,1809.382 C673.0937,1809.382 671.9218,1810.5539 671.9218,1811.9862 L690.151,1811.9862 C690.151,1810.5539 688.9791,1809.382 687.5468,1809.382 L684.9427,1809.382 C684.9427,1807.9497 683.7708,1806.7779 682.3385,1806.7779 L679.7343,1806.7779 M674.526,1814.5904 L674.526,1827.1164 C674.526,1827.4029 674.7343,1827.6112 675.0208,1827.6112 L687.0781,1827.6112 C687.3646,1827.6112 687.5729,1827.4029 687.5729,1827.1164 L687.5729,1814.5904 L684.9687,1814.5904 L684.9687,1823.7049 C684.9687,1824.4341 684.3958,1825.007 683.6666,1825.007 C682.9375,1825.007 682.3646,1824.4341 682.3646,1823.7049 L682.3646,1814.5904 L679.7604,1814.5904 L679.7604,1823.7049 C679.7604,1824.4341 679.1875,1825.007 678.4583,1825.007 C677.7291,1825.007 677.1562,1824.4341 677.1562,1823.7049 L677.1562,1814.5904 L674.5521,1814.5904 " fill="#1A1A1A" style="stroke:;stroke-width:0.0;stroke-dasharray:;"/><text fill="#1A1A1A" font-family="Arial" font-size="31.25" font-weight="bold" lengthAdjust="spacing" textLength="194.5496" x="712.203" y="1828.8014">Delete Scans</text></g><g id="elem_UC11"><ellipse cx="788.8865" cy="1356.7299" fill="#FFF9C4" filter="url(#fep6vfg6j7yth)" rx="251.3865" ry="55.2773" style="stroke:#F9A825;stroke-width:4.166666666666667;"/><path d="M633.6792,1341.8847 C630.0854,1341.8847 626.7521,1342.9263 623.9136,1344.7232 L625.2938,1346.8326 C627.7156,1345.2961 630.5802,1344.4628 633.6792,1344.4628 C636.8042,1344.4628 639.7209,1345.2701 642.1427,1346.8326 L643.5229,1344.7232 C640.6844,1342.9003 637.2729,1341.8847 633.6792,1341.8847 M633.6792,1349.6972 C631.6219,1349.6972 629.7729,1350.2961 628.1323,1351.3378 L629.5125,1353.5253 C630.7365,1352.744 632.1167,1352.3013 633.6531,1352.3013 C635.1896,1352.3013 636.674,1352.744 637.8979,1353.5253 L639.2781,1351.3378 C637.6636,1350.3222 635.7104,1349.6972 633.6531,1349.6972 M633.6792,1357.5097 C632.2469,1357.5097 631.075,1358.6815 631.075,1360.1138 C631.075,1361.5461 632.2469,1362.718 633.6792,1362.718 C635.1115,1362.718 636.2834,1361.5461 636.2834,1360.1138 C636.2834,1358.6815 635.1115,1357.5097 633.6792,1357.5097 " fill="#1A1A1A" style="stroke:;stroke-width:0.0;stroke-dasharray:;"/><text fill="#1A1A1A" font-family="Arial" font-size="31.25" font-weight="bold" lengthAdjust="spacing" textLength="291.748" x="664.1947" y="1363.9082">Configure Server IP</text></g><g id="elem_UC12"><ellipse cx="788.084" cy="1016.5694" fill="#FFF9C4" filter="url(#fep6vfg6j7yth)" rx="243.2924" ry="53.6585" style="stroke:#F9A825;stroke-width:4.166666666666667;"/><path d="M640.6391,1001.7242 C636.5245,1003.1044 633.5557,1006.9846 633.5557,1011.5679 C633.5557,1017.3231 638.2172,1021.9846 643.9724,1021.9846 C648.5557,1021.9846 652.4359,1019.0158 653.8161,1014.9012 C652.7745,1015.2398 651.6547,1015.4742 650.4828,1015.4742 C644.7276,1015.4742 640.0661,1010.8127 640.0661,1005.0575 C640.0661,1003.8856 640.2745,1002.7658 640.6391,1001.7242 " fill="#1A1A1A" style="stroke:;stroke-width:0.0;stroke-dasharray:;"/><text fill="#1A1A1A" font-family="Arial" font-size="31.25" font-weight="bold" lengthAdjust="spacing" textLength="270.8588" x="673.8369" y="1023.7477">Toggle Dark Mode</text></g><g id="elem_UC13"><ellipse cx="789.0577" cy="1186.3475" fill="#FFF9C4" filter="url(#fep6vfg6j7yth)" rx="238.0161" ry="52.6032" style="stroke:#F9A825;stroke-width:4.166666666666667;"/><path d="M651.8889,1171.5022 C646.1336,1171.5022 641.4722,1176.1637 641.4722,1181.9189 C641.4722,1187.6741 646.1336,1192.3356 651.8889,1192.3356 C657.6441,1192.3356 662.3055,1187.6741 662.3055,1181.9189 C662.3055,1176.1637 657.6441,1171.5022 651.8889,1171.5022 M651.8889,1174.1064 C652.7482,1174.1064 653.5555,1174.3408 654.3368,1174.6012 C653.7899,1175.122 653.1649,1175.5908 653.2691,1176.0595 C653.3732,1176.5283 655.0659,1176.3981 655.0659,1177.3616 C655.0659,1178.0647 653.9722,1178.2731 654.7274,1179.0804 C655.6389,1179.9918 653.0607,1181.6325 653.0086,1182.8304 C652.9305,1184.9918 655.1961,1185.3564 656.993,1185.3564 C658.0868,1185.3564 658.3732,1185.8772 658.2951,1186.5022 C656.8889,1188.5075 654.493,1189.7575 651.8628,1189.7575 C650.8732,1189.7575 649.9618,1189.5231 649.1024,1189.1845 C649.6753,1188.0387 648.3732,1185.7731 647.1493,1185.0439 C646.5503,1184.445 645.2743,1184.6793 644.5451,1184.3929 C644.3107,1183.6897 644.0764,1182.9866 644.0503,1182.2054 C644.1284,1182.0752 644.2586,1181.971 644.467,1181.971 C644.9618,1181.971 645.6389,1182.9606 646.0034,1182.8564 C646.4722,1182.7522 644.0764,1179.445 645.1961,1178.7939 C645.717,1178.4814 646.7586,1179.8095 646.4201,1178.3772 C646.1076,1177.0491 647.3576,1177.6481 648.1389,1177.3095 C648.8159,1177.0231 649.3107,1176.2418 648.4774,1175.7731 C648.3211,1175.695 648.1389,1175.5127 647.9045,1175.2783 C649.0764,1174.5752 650.4305,1174.1325 651.8889,1174.1325 M657.9045,1176.945 C658.3732,1177.5179 658.7378,1178.1429 659.0503,1178.82 C659.0503,1178.846 659.0503,1178.872 659.0503,1178.8981 C658.9461,1179.0804 658.7639,1179.1845 658.4774,1179.471 C657.7482,1180.2002 657.6441,1178.9241 657.3316,1178.6637 C656.993,1178.3512 655.7691,1178.7158 655.6128,1178.3252 C655.4305,1177.8564 656.9149,1177.2314 657.9045,1176.945 " fill="#1A1A1A" style="stroke:;stroke-width:0.0;stroke-dasharray:;"/><text fill="#1A1A1A" font-family="Arial" font-size="31.25" font-weight="bold" lengthAdjust="spacing" textLength="256.9733" x="681.7534" y="1193.5258">Switch Language</text></g><g id="elem_UC14"><ellipse cx="788.1115" cy="843.8666" fill="#FFF9C4" filter="url(#fep6vfg6j7yth)" rx="254.7782" ry="55.9556" style="stroke:#F9A825;stroke-width:4.166666666666667;"/><path d="M618.8279,829.0213 L618.8279,847.2505 L637.0571,847.2505 L637.0571,837.9015 L634.4529,840.5057 L634.4529,844.6463 L621.4321,844.6463 L621.4321,831.6255 L630.7811,831.6255 L633.3852,829.0213 L618.8279,829.0213 M637.0571,829.0213 L629.2446,836.8338 L626.6404,834.2297 L624.0363,836.8338 L629.2446,842.0422 L639.6613,831.6255 L637.0571,829.0213 " fill="#1A1A1A" style="stroke:;stroke-width:0.0;stroke-dasharray:;"/><text fill="#1A1A1A" font-family="Arial" font-size="31.25" font-weight="bold" lengthAdjust="spacing" textLength="300.3693" x="659.1091" y="851.0448">Toggle AI Diagnosis</text></g><!--entity User--><g id="elem_User"><ellipse cx="119.9626" cy="1674.3693" fill="#FFD700" filter="url(#fep6vfg6j7yth)" rx="33.3333" ry="33.3333" style="stroke:#B8860B;stroke-width:4.166666666666667;"/><path d="M119.9626,1716.036 C128.2959,1716.036 134.5459,1716.036 142.8792,1707.7026 C159.5459,1707.7026 176.2126,1724.3693 176.2126,1741.036 L176.2126,1749.3693 C176.2126,1757.7026 167.8792,1766.036 159.5459,1766.036 L80.3792,1766.036 C72.0459,1766.036 63.7126,1757.7026 63.7126,1749.3693 L63.7126,1741.036 C63.7126,1724.3693 80.3792,1707.7026 97.0459,1707.7026 C105.3792,1716.036 111.6292,1716.036 119.9626,1716.036 " fill="#FFD700" filter="url(#fep6vfg6j7yth)" style="stroke:#B8860B;stroke-width:4.166666666666667;"/><path d="M25.6944,1782.7026 C22.6389,1782.7026 20.1389,1785.8137 20.1389,1789.6471 C20.1389,1793.4804 22.6389,1796.5915 25.6944,1796.5915 C28.75,1796.5915 31.25,1793.4804 31.25,1789.6471 C31.25,1785.8137 28.75,1782.7026 25.6944,1782.7026 M19.8889,1796.5915 C16.9444,1796.7304 14.5833,1799.1471 14.5833,1802.1471 L14.5833,1804.9249 L36.8056,1804.9249 L36.8056,1802.1471 C36.8056,1799.1471 34.4722,1796.7304 31.5,1796.5915 C30,1798.286 27.9444,1799.3693 25.6944,1799.3693 C23.4444,1799.3693 21.3889,1798.286 19.8889,1796.5915 " fill="#1A1A1A" style="stroke:;stroke-width:0.0;stroke-dasharray:;"/><text fill="#1A1A1A" font-family="Arial" font-size="33.3333" font-weight="bold" lengthAdjust="spacing" textLength="214.9251" x="12.5" y="1836.1911">Farmer / User</text></g><!--entity Server--><g id="elem_Server"><ellipse cx="119.9788" cy="2918.1193" fill="#FFB300" filter="url(#fep6vfg6j7yth)" rx="33.3333" ry="33.3333" style="stroke:#B8860B;stroke-width:4.166666666666667;"/><path d="M119.9788,2959.786 C128.3122,2959.786 134.5622,2959.786 142.8955,2951.4526 C159.5622,2951.4526 176.2288,2968.1193 176.2288,2984.786 L176.2288,2993.1193 C176.2288,3001.4526 167.8955,3009.786 159.5622,3009.786 L80.3955,3009.786 C72.0622,3009.786 63.7288,3001.4526 63.7288,2993.1193 L63.7288,2984.786 C63.7288,2968.1193 80.3955,2951.4526 97.0622,2951.4526 C105.3955,2959.786 111.6455,2959.786 119.9788,2959.786 " fill="#FFB300" filter="url(#fep6vfg6j7yth)" style="stroke:#B8860B;stroke-width:4.166666666666667;"/><path d="M35.4167,3026.4526 C32.0556,3026.4526 29.1111,3028.8415 28.4722,3032.0082 C25.4167,3032.0082 22.9167,3034.5082 22.9167,3037.5637 C22.9167,3038.5915 23.2222,3039.536 23.6944,3040.3415 L29.8611,3040.3415 L35.4167,3034.786 L40.9722,3040.3415 L44.8889,3040.3415 C45.0556,3039.8971 45.1389,3039.4526 45.1389,3038.9526 C45.1389,3037.1471 43.9722,3035.3693 42.3611,3034.786 L42.3611,3033.3971 C42.3611,3029.5637 39.25,3026.4526 35.4167,3026.4526 M35.4167,3038.9526 L28.4722,3045.8971 L34.0278,3045.8971 L34.0278,3047.286 A1.3889,1.3889 0 1 0 36.8056,3047.286 L36.8056,3045.8971 L42.3611,3045.8971 L35.4167,3038.9526 " fill="#1A1A1A" style="stroke:;stroke-width:0.0;stroke-dasharray:;"/><text fill="#1A1A1A" font-family="Arial" font-size="33.3333" font-weight="bold" lengthAdjust="spacing" textLength="198.291" x="20.8333" y="3079.9411">Flask Server</text></g><!--entity AI--><g id="elem_AI"><ellipse cx="120.1904" cy="243.1193" fill="#FFC107" filter="url(#fep6vfg6j7yth)" rx="33.3333" ry="33.3333" style="stroke:#B8860B;stroke-width:4.166666666666667;"/><path d="M120.1904,284.786 C128.5238,284.786 134.7738,284.786 143.1071,276.4526 C159.7738,276.4526 176.4404,293.1193 176.4404,309.786 L176.4404,318.1193 C176.4404,326.4526 168.1071,334.786 159.7738,334.786 L80.6071,334.786 C72.2738,334.786 63.9404,326.4526 63.9404,318.1193 L63.9404,309.786 C63.9404,293.1193 80.6071,276.4526 97.2738,276.4526 C105.6071,284.786 111.8571,284.786 120.1904,284.786 " fill="#FFC107" filter="url(#fep6vfg6j7yth)" style="stroke:#B8860B;stroke-width:4.166666666666667;"/><path d="M41.9167,351.4526 C41.75,351.4526 41.6667,351.5637 41.6667,351.7026 L41.6667,367.8415 C41.6667,367.9804 41.7778,368.0915 41.9167,368.0915 L58.3333,368.0915 L63.8889,373.6471 L63.8889,351.6749 C63.8889,351.5082 63.7778,351.4249 63.6389,351.4249 L41.9444,351.4249 " fill="#1A1A1A" style="stroke:;stroke-width:0.0;stroke-dasharray:;"/><text fill="#1A1A1A" font-family="Arial" font-size="33.3333" font-weight="bold" lengthAdjust="spacing" textLength="161.2142" x="39.5833" y="404.9411">AI Service</text></g><!--link User to UC1--><g id="link_User_UC1"><path d="M239.9167,1812.1193 C367.8542,1883.4943 558.7514,1990.0069 678.0222,2056.5694 " fill="none" id="User-to-UC1" style="stroke:#E65100;stroke-width:4.166666666666667;"/><polygon fill="#E65100" points="688.9375,2062.661,676.6257,2046.2468,679.8415,2057.5847,668.5036,2060.8005,688.9375,2062.661" style="stroke:#E65100;stroke-width:4.166666666666667;"/></g><!--link User to UC2--><g id="link_User_UC2"><path d="M172.1458,1856.3276 C226.0208,1961.9735 321.4583,2118.1401 450,2206.661 C488.0208,2232.8485 521.3593,2247.736 566.2552,2260.611 " fill="none" id="User-to-UC2" style="stroke:#E65100;stroke-width:4.166666666666667;"/><polygon fill="#E65100" points="578.2708,2264.0568,562.5445,2250.8777,568.2578,2261.1853,557.9501,2266.8986,578.2708,2264.0568" style="stroke:#E65100;stroke-width:4.166666666666667;"/></g><!--link User to UC3--><g id="link_User_UC3"><path d="M145.75,1855.786 C170.0208,1952.4943 213.7708,2094.7443 281.25,2204.5776 C337.8125,2296.6401 356.5625,2325.3068 450,2379.5776 C493.7708,2404.9943 532.9348,2419.8217 582.0806,2432.4467 " fill="none" id="User-to-UC3" style="stroke:#E65100;stroke-width:4.166666666666667;"/><polygon fill="#E65100" points="594.1875,2435.5568,578.1006,2422.8203,584.0984,2432.965,573.9537,2438.9629,594.1875,2435.5568" style="stroke:#E65100;stroke-width:4.166666666666667;"/></g><!--link User to UC4--><g id="link_User_UC4"><path d="M123.5208,1856.2235 C129.4375,2096.8068 156.5833,2659.0985 281.25,2794.161 C343.2708,2861.3485 423.2131,2891.8688 511.9839,2906.723 " fill="none" id="User-to-UC4" style="stroke:#E65100;stroke-width:4.166666666666667;"/><polygon fill="#E65100" points="524.3125,2908.786,507.1949,2897.4725,514.0387,2907.0668,504.4443,2913.9106,524.3125,2908.786" style="stroke:#E65100;stroke-width:4.166666666666667;"/></g><!--link User to UC5--><g id="link_User_UC5"><path d="M128.8333,1855.8485 C145.625,2097.7443 193.5833,2669.286 281.25,2839.9943 C328.8125,2932.5985 358.7083,2952.411 450,3002.4943 C496.1042,3027.786 537.8373,3042.3811 588.7956,3054.4644 " fill="none" id="User-to-UC5" style="stroke:#E65100;stroke-width:4.166666666666667;"/><polygon fill="#E65100" points="600.9583,3057.3485,584.6369,3044.9139,590.8227,3054.9451,580.7915,3061.1309,600.9583,3057.3485" style="stroke:#E65100;stroke-width:4.166666666666667;"/></g><!--link User to UC6--><g id="link_User_UC6"><path d="M121.1458,1856.0568 C122.125,2101.9318 139.6458,2684.7443 281.25,2806.661 C341.4792,2858.5151 546.6819,2786.4176 675.8902,2733.5218 " fill="none" id="User-to-UC6" style="stroke:#E65100;stroke-width:4.166666666666667;"/><polygon fill="#E65100" points="687.4583,2728.786,666.9489,2728.1776,677.8182,2732.7325,673.2633,2743.6018,687.4583,2728.786" style="stroke:#E65100;stroke-width:4.166666666666667;"/></g><!--link User to UC7--><g id="link_User_UC7"><path d="M132.4167,1636.3276 C150.8958,1464.0776 195.5833,1121.3276 281.25,842.0776 C335.1042,666.536 320.0833,594.7235 450,464.9943 C494.8125,420.2443 543.6789,392.359 600.9914,369.234 " fill="none" id="User-to-UC7" style="stroke:#E65100;stroke-width:4.166666666666667;"/><polygon fill="#E65100" points="612.5833,364.5568,592.0772,363.8447,602.9234,368.4545,598.3136,379.3006,612.5833,364.5568" style="stroke:#E65100;stroke-width:4.166666666666667;"/></g><!--link User to UC8--><g id="link_User_UC8"><path d="M131.6875,1636.5568 C148.0208,1487.3901 188.6458,1214.6193 281.25,1000.411 C333.5417,879.4526 354.4792,847.411 450,756.661 C521.2292,688.9735 606.7678,637.6853 678.2053,600.477 " fill="none" id="User-to-UC8" style="stroke:#E65100;stroke-width:4.166666666666667;"/><polygon fill="#E65100" points="689.2917,594.7026,668.8126,595.9732,680.053,599.5146,676.5117,610.755,689.2917,594.7026" style="stroke:#E65100;stroke-width:4.166666666666667;"/></g><!--link User to UC9--><g id="link_User_UC9"><path d="M240.0625,1658.786 C253.4583,1652.0151 267.3125,1646.2235 281.25,1642.0776 C381.3125,1612.2651 485.078,1611.6749 580.7864,1620.8624 " fill="none" id="User-to-UC9" style="stroke:#E65100;stroke-width:4.166666666666667;"/><polygon fill="#E65100" points="593.2292,1622.0568,575.3613,1611.9699,582.8602,1621.0614,573.7687,1628.5603,593.2292,1622.0568" style="stroke:#E65100;stroke-width:4.166666666666667;"/></g><!--link User to UC10--><g id="link_User_UC10"><path d="M239.7708,1777.9318 C253.6875,1780.9526 267.7292,1783.6818 281.25,1785.8276 C379.1667,1801.286 476.351,1809.3515 568.4343,1814.2473 " fill="none" id="User-to-UC10" style="stroke:#E65100;stroke-width:4.166666666666667;"/><polygon fill="#E65100" points="580.9167,1814.911,562.6355,1805.5939,570.5147,1814.3579,561.7507,1822.2371,580.9167,1814.911" style="stroke:#E65100;stroke-width:4.166666666666667;"/></g><!--link User to UC11--><g id="link_User_UC11"><path d="M218.7083,1636.0568 C238.2708,1617.2235 259.5208,1598.8693 281.25,1583.7443 C395.6458,1503.9943 530.7913,1446.065 636.6663,1407.065 " fill="none" id="User-to-UC11" style="stroke:#E65100;stroke-width:4.166666666666667;"/><polygon fill="#E65100" points="648.3958,1402.7443,627.9211,1401.4056,638.6212,1406.3449,633.682,1417.045,648.3958,1402.7443" style="stroke:#E65100;stroke-width:4.166666666666667;"/></g><!--link User to UC12--><g id="link_User_UC12"><path d="M142.625,1636.5151 C177.3542,1486.8693 262.7708,1223.5985 450,1102.4943 C489.7292,1076.786 524.6696,1062.1166 570.7321,1049.5541 " fill="none" id="User-to-UC12" style="stroke:#E65100;stroke-width:4.166666666666667;"/><polygon fill="#E65100" points="582.7917,1046.2651,562.5097,1043.1589,572.742,1049.0059,566.895,1059.2383,582.7917,1046.2651" style="stroke:#E65100;stroke-width:4.166666666666667;"/></g><!--link User to UC13--><g id="link_User_UC13"><path d="M167.6667,1635.8485 C219.4792,1525.2235 314.6458,1358.8068 450,1269.161 C489.875,1242.7443 525.3518,1227.8733 571.9768,1215.5608 " fill="none" id="User-to-UC13" style="stroke:#E65100;stroke-width:4.166666666666667;"/><polygon fill="#E65100" points="584.0625,1212.3693,563.8063,1209.0995,573.9911,1215.0289,568.0616,1225.2137,584.0625,1212.3693" style="stroke:#E65100;stroke-width:4.166666666666667;"/></g><!--link User to UC14--><g id="link_User_UC14"><path d="M137.8125,1636.7235 C158.7083,1513.5776 202.3333,1309.9735 281.25,1150.411 C335.6667,1040.3276 347.5625,999.3693 450,931.661 C488.0208,906.536 520.8645,892.0831 565.2187,879.2914 " fill="none" id="User-to-UC14" style="stroke:#E65100;stroke-width:4.166666666666667;"/><polygon fill="#E65100" points="577.2292,875.8276,556.9042,873.0163,567.2204,878.7141,561.5226,889.0303,577.2292,875.8276" style="stroke:#E65100;stroke-width:4.166666666666667;"/></g><!--link Server to UC3--><g id="link_Server_UC3"><path d="M231.5833,2955.161 C301.6458,2926.8485 387.625,2879.4526 433.3333,2806.661 C457.2917,2768.4943 423.4583,2640.9943 450,2604.5776 C488.1875,2552.1818 537.9001,2523.4302 597.9834,2502.9094 " fill="none" id="Server-to-UC3" style="stroke:#E65100;stroke-width:4.166666666666667;"/><polygon fill="#E65100" points="609.8125,2498.8693,589.3755,2497.0434,599.9549,2502.2361,594.7623,2512.8155,609.8125,2498.8693" style="stroke:#E65100;stroke-width:4.166666666666667;"/></g><!--link Server to UC4--><g id="link_Server_UC4"><path d="M231.9583,3017.7235 C248.375,3020.911 265.1875,3023.6401 281.25,3025.411 C348.4375,3032.786 373.1042,3056.0776 433.3333,3025.411 C444.5625,3019.6818 439.6042,3009.6193 450,3002.4943 C486.3958,2977.536 517.432,2963.1368 560.307,2950.1577 " fill="none" id="Server-to-UC4" style="stroke:#E65100;stroke-width:4.166666666666667;"/><polygon fill="#E65100" points="572.2708,2946.536,551.9106,2943.9926,562.301,2949.5541,556.7396,2959.9444,572.2708,2946.536" style="stroke:#E65100;stroke-width:4.166666666666667;"/></g><!--link Server to UC5--><g id="link_Server_UC5"><path d="M187.75,3100.161 C212.7292,3131.7651 244.2292,3162.3276 281.25,3179.5776 C420.0417,3244.2235 588.3478,3184.6797 691.7645,3134.7422 " fill="none" id="Server-to-UC5" style="stroke:#E65100;stroke-width:4.166666666666667;"/><polygon fill="#E65100" points="703.0208,3129.3068,682.5126,3129.9557,693.6405,3133.8363,689.7599,3144.9642,703.0208,3129.3068" style="stroke:#E65100;stroke-width:4.166666666666667;"/></g><!--link Server to UC11--><g id="link_Server_UC11"><path d="M156.5417,2880.5985 C222.0833,2669.1193 363.7917,2188.3485 433.3333,1773.3276 C440.8542,1728.4318 426.4167,1608.0985 450,1569.161 C496.875,1491.7443 572.5282,1443.1551 646.3199,1409.0509 " fill="none" id="Server-to-UC11" style="stroke:#E65100;stroke-width:4.166666666666667;"/><polygon fill="#E65100" points="657.6667,1403.8068,637.1504,1404.1085,648.211,1408.1769,644.1426,1419.2375,657.6667,1403.8068" style="stroke:#E65100;stroke-width:4.166666666666667;"/></g><!--link AI to UC7--><g id="link_AI_UC7"><path d="M212.8958,314.9943 C287.1875,314.9943 383.8958,314.9943 487.1458,314.9943 " fill="none" id="AI-to-UC7" style="stroke:#E65100;stroke-width:4.166666666666667;"/><polygon fill="#E65100" points="499.6458,314.9943,480.8958,306.661,489.2292,314.9943,480.8958,323.3276,499.6458,314.9943" style="stroke:#E65100;stroke-width:4.166666666666667;"/></g><!--link UC3 to UC6--><g id="link_UC3_UC6"><path d="M788.5417,2517.7235 C788.5417,2553.8693 788.5417,2588.9943 788.5417,2624.3068 " fill="none" id="UC3-to-UC6" style="stroke:#E65100;stroke-width:4.166666666666667;stroke-dasharray:7.0,7.0;"/><polygon fill="#E65100" points="788.5417,2636.8068,796.875,2618.0568,788.5417,2626.3901,780.2083,2618.0568,788.5417,2636.8068" style="stroke:#E65100;stroke-width:4.166666666666667;"/><text fill="#000000" font-family="Arial" font-size="27.0833" font-weight="bold" lengthAdjust="spacing" textLength="124.9298" x="691.6667" y="2587.794">&#171;include&#187;</text></g><!--link UC4 to UC6--><g id="link_UC4_UC6"><path d="M788.5417,2854.4318 C788.5417,2817.3693 788.5417,2782.4943 788.5417,2747.3901 " fill="none" id="UC4-to-UC6" style="stroke:#E65100;stroke-width:4.166666666666667;stroke-dasharray:7.0,7.0;"/><polygon fill="#E65100" points="788.5417,2734.8901,780.2083,2753.6401,788.5417,2745.3068,796.875,2753.6401,788.5417,2734.8901" style="stroke:#E65100;stroke-width:4.166666666666667;"/><text fill="#000000" font-family="Arial" font-size="27.0833" font-weight="bold" lengthAdjust="spacing" textLength="124.9298" x="691.6667" y="2805.5023">&#171;include&#187;</text></g><!--link UC5 to UC6--><g id="link_UC5_UC6"><path d="M582.4792,3064.9526 C535.125,3052.7443 487.6667,3033.286 450,3002.4943 C351.5833,2922.0151 267.2292,2828.411 352.0833,2733.7443 C418.3542,2659.8068 517.7005,2647.7841 611.5755,2654.7008 " fill="none" id="UC5-to-UC6" style="stroke:#E65100;stroke-width:4.166666666666667;stroke-dasharray:7.0,7.0;"/><polygon fill="#E65100" points="624.0417,2655.6193,605.9547,2645.9307,613.6532,2654.8539,604.73,2662.5524,624.0417,2655.6193" style="stroke:#E65100;stroke-width:4.166666666666667;"/><text fill="#000000" font-family="Arial" font-size="27.0833" font-weight="bold" lengthAdjust="spacing" textLength="124.9298" x="295.8333" y="2773.7315">&#171;include&#187;</text></g><!--link UC6 to UC7--><g id="link_UC6_UC7"><path d="M622.2708,2656.1193 C558.7083,2636.2443 491.5625,2603.1818 450,2548.3276 C221.5833,2246.786 376.3125,2080.1818 355.2083,1702.4943 C339.8333,1427.1193 290.4375,689.9526 450,464.9943 C484.3958,416.4943 526.5823,388.1998 581.1865,365.7831 " fill="none" id="UC6-to-UC7" style="stroke:#E65100;stroke-width:4.166666666666667;stroke-dasharray:7.0,7.0;"/><polygon fill="#E65100" points="592.75,361.036,572.24,360.4477,583.1138,364.9919,578.5695,375.8657,592.75,361.036" style="stroke:#E65100;stroke-width:4.166666666666667;"/><text fill="#000000" font-family="Arial" font-size="27.0833" font-weight="bold" lengthAdjust="spacing" textLength="117.4184" x="298.9583" y="1684.1482">&#171;extend&#187;</text></g><!--link UC7 to UC8--><g id="link_UC7_UC8"><path d="M788.5417,377.7026 C788.5417,415.0985 788.5417,449.4735 788.5417,484.6193 " fill="none" id="UC7-to-UC8" style="stroke:#E65100;stroke-width:4.166666666666667;stroke-dasharray:7.0,7.0;"/><polygon fill="#E65100" points="788.5417,497.1193,796.875,478.3693,788.5417,486.7026,780.2083,478.3693,788.5417,497.1193" style="stroke:#E65100;stroke-width:4.166666666666667;"/><text fill="#000000" font-family="Arial" font-size="27.0833" font-weight="bold" lengthAdjust="spacing" textLength="117.4184" x="694.7917" y="448.2107">&#171;extend&#187;</text></g><!--SRC=[VLLTRoet47tVNp5AfQlsWMQNxqG8YK1e8xLNKRZjKr_Cxh1O69lQtb9QzR_ViNUvsB1KUI3ZCyTppimOp8xB0zDi3mLkM2NiKacxulyWPCF4j8Bs913MIXJj-6UsHvXfpaI87pXqqpG9ZgGgqE01Ucbmg9dSkSD-U7XWHS5b2SEGpdAhTAs57T6eFGRWp87jJYvGcm-Flh1yLsfLoMAkXDBmtNAv6ANfJPhI1UecvMKy7gOlxIbVjZpVIJG6kcr2cXkocViBBVvcC6S6Bpu6Ty0s9mtUucNvDE-t98Pkba-pSNTmBwdTJo3ehgDtKiFAmD7e3jZcgC5ZeOFHiksI_nDwJcdfJEyrMj6PrkhOeA_3GHRlW0FlZDP15vEzLkXYCO0_QZrQeeOil7ArPOKwkbTWTHMkUfkDnUieIGHkB5W5cfTR2mNNc5kkP99ORgdo97VfpytYJYU6f3vtnzDtUcodLSxavD4TJIUFFd4AqAIaKveqp6dKiE2i90rDPfBuDmaFaqy7r4R9wHzooVIUh3owxT0F0Cpu_m2-FQfld5oegkXK1w5OuPY2cHsiKF_bYCIh_tMybrx4K_izIjinVrPC8p5dRpwNvrWNf1ZgWlCifSOSwlbxdLibaQmvlz8rznFC91Cdmusl-PwT-md_9W1LlUA-AdtBQKRKEJlOIYEyxTsTty_z-GyFlgHpEyzY8dTvhYGA6WXijDh3Jqm8rAUQT65shqfkCT-vYjGPmpSdQhz1mWBQcTcBcPRf4YrH5sXTqTbcGnzOq3RI1GyXinypIQoaKjIQJkdAqXtBIWW_UQbycyxCGSnSCzt9jqoxihzpFC876lg5C2rgXyb_qLIk9WfkWg-2hPLcReFhoNJlJKQuVLzNOdqkJEmFhEyicWlgkgEhBj6FZzcWM_NLaTjywvY_qg-KUBXMFBvIBBXnFd-c3-Ncw0JsxWd44vwbkRsxi6uxytIZq6pz60KDqhEl-ddPklIcgQNVEcjfcCrsz-z9FF8DTvkcv8QNRhkRn_VsVjEAx6g_zueUFi0NLPRqBRDWUkTxsEOkkrhmKgWrNhh_2vDbHUfRgJSRRdQNgZItU44ZQjzrndyBTJfJ_q23e1i6lJ3eXy4W38PXC0g3SHWyHKNJA8eqP968B591wfDc66UDKTYFmq4SKfs4cdDMcX0TVlGMu1ac4ovpKHKudHBGlmSCxW736XXv0F-szDpy-QW-7yVdNm40]--></g></svg>