<svg xmlns="http://www.w3.org/2000/svg" xmlns:xlink="http://www.w3.org/1999/xlink" contentStyleType="text/css" height="3008.3333px" preserveAspectRatio="none" style="width:2437px;height:3008px;background:#FFFDE7;" version="1.1" viewBox="0 0 2437 3008" width="2437.5px" zoomAndPan="magnify"><title>&lt;color:#B8860B&gt;&lt;size:28&gt;PaddyScan&lt;/size&gt;&lt;/color&gt;  &lt;size:20&gt;Sequence Diagram&lt;/size&gt;</title><defs><filter height="300%" id="f1upyqb59v7eof" width="300%" x="-1" y="-1"><feGaussianBlur result="blurOut" stdDeviation="4.166666666666667"/><feColorMatrix in="blurOut" result="blurOut2" type="matrix" values="0 0 0 0 0 0 0 0 0 0 0 0 0 0 0 0 0 0 .4 0"/><feOffset dx="8.333333333333334" dy="8.333333333333334" in="blurOut2" result="blurOut3"/><feBlend in="SourceGraphic" in2="blurOut3" mode="normal"/></filter></defs><g><rect fill="#FFFDE7" height="3008.3333" style="stroke:none;stroke-width:2.0833333333333335;" width="2437.5" x="0" y="0"/><text fill="#B8860B" font-family="Arial" font-size="58.3333" font-weight="bold" lengthAdjust="spacing" textLength="314.4816" x="858.5375" y="85.966">PaddyScan</text><text fill="#000000" font-family="Arial" font-size="29.1667" font-weight="bold" lengthAdjust="spacing" textLength="16.2069" x="1173.0192" y="92.1468">&#160;&#160;</text><text fill="#000000" font-family="Arial" font-size="41.6667" font-weight="bold" lengthAdjust="spacing" textLength="375.1424" x="1189.226" y="89.4979">Sequence Diagram</text><rect fill="#FFD700" filter="url(#f1upyqb59v7eof)" height="62.7055" style="stroke:#181818;stroke-width:2.0833333333333335;" width="20.8333" x="1067.7027" y="987.5661"/><rect fill="#FFD700" filter="url(#f1upyqb59v7eof)" height="62.7055" style="stroke:#181818;stroke-width:2.0833333333333335;" width="20.8333" x="1067.7027" y="1272.346"/><rect fill="#FFD700" filter="url(#f1upyqb59v7eof)" height="403.3162" style="stroke:#181818;stroke-width:2.0833333333333335;" width="20.8333" x="1067.7027" y="1557.1259"/><rect fill="#FFA000" filter="url(#f1upyqb59v7eof)" height="152.4943" style="stroke:#181818;stroke-width:2.0833333333333335;" width="20.8333" x="2013.5198" y="1682.5368"/><rect fill="#FF8F00" filter="url(#f1upyqb59v7eof)" height="62.7055" style="stroke:#181818;stroke-width:2.0833333333333335;" width="20.8333" x="2283.6207" y="2427.713"/><line style="stroke:#181818;stroke-width:1.0416666666666667;stroke-dasharray:5.0,5.0;" x1="104.1667" x2="104.1667" y1="288.4288" y2="2839.7817"/><line style="stroke:#181818;stroke-width:1.0416666666666667;stroke-dasharray:5.0,5.0;" x1="595.5424" x2="595.5424" y1="288.4288" y2="2839.7817"/><line style="stroke:#181818;stroke-width:1.0416666666666667;stroke-dasharray:5.0,5.0;" x1="1077.0777" x2="1077.0777" y1="288.4288" y2="2839.7817"/><line style="stroke:#181818;stroke-width:1.0416666666666667;stroke-dasharray:5.0,5.0;" x1="1632.7515" x2="1632.7515" y1="288.4288" y2="2839.7817"/><line style="stroke:#181818;stroke-width:1.0416666666666667;stroke-dasharray:5.0,5.0;" x1="2023.5214" x2="2023.5214" y1="288.4288" y2="2839.7817"/><line style="stroke:#181818;stroke-width:1.0416666666666667;stroke-dasharray:5.0,5.0;" x1="2292.2521" x2="2292.2521" y1="288.4288" y2="2839.7817"/><path d="M60.4167,259.7829 C57.5521,259.7829 55.2083,262.6996 55.2083,266.2933 C55.2083,269.8871 57.5521,272.8038 60.4167,272.8038 C63.2813,272.8038 65.625,269.8871 65.625,266.2933 C65.625,262.6996 63.2813,259.7829 60.4167,259.7829 M54.974,272.8038 C52.2135,272.934 50,275.1996 50,278.0121 L50,280.6163 L70.8333,280.6163 L70.8333,278.0121 C70.8333,275.1996 68.6458,272.934 65.8594,272.8038 C64.4531,274.3923 62.526,275.4079 60.4167,275.4079 C58.3073,275.4079 56.3802,274.3923 54.974,272.8038 " fill="#000000" style="stroke:;stroke-width:0.0;stroke-dasharray:;"/><text fill="#000000" font-family="Arial" font-size="31.25" font-weight="bold" lengthAdjust="spacing" textLength="69.4885" x="81.5989" y="281.8064">User</text><ellipse cx="105.7521" cy="138.9526" fill="#FFD700" filter="url(#f1upyqb59v7eof)" rx="16.6667" ry="16.6667" style="stroke:#B8860B;stroke-width:1.0416666666666667;"/><path d="M105.7521,155.6193 L105.7521,211.8693 M78.6687,172.286 L132.8354,172.286 M105.7521,211.8693 L78.6687,243.1193 M105.7521,211.8693 L132.8354,243.1193 " fill="none" filter="url(#f1upyqb59v7eof)" style="stroke:#B8860B;stroke-width:1.0416666666666667;"/><path d="M60.4167,2844.987 C57.5521,2844.987 55.2083,2847.9036 55.2083,2851.4974 C55.2083,2855.0911 57.5521,2858.0078 60.4167,2858.0078 C63.2813,2858.0078 65.625,2855.0911 65.625,2851.4974 C65.625,2847.9036 63.2813,2844.987 60.4167,2844.987 M54.974,2858.0078 C52.2135,2858.138 50,2860.4036 50,2863.2161 L50,2865.8203 L70.8333,2865.8203 L70.8333,2863.2161 C70.8333,2860.4036 68.6458,2858.138 65.8594,2858.0078 C64.4531,2859.5964 62.526,2860.612 60.4167,2860.612 C58.3073,2860.612 56.3802,2859.5964 54.974,2858.0078 " fill="#000000" style="stroke:;stroke-width:0.0;stroke-dasharray:;"/><text fill="#000000" font-family="Arial" font-size="31.25" font-weight="bold" lengthAdjust="spacing" textLength="69.4885" x="81.5989" y="2867.0105">User</text><ellipse cx="105.7521" cy="2891.3411" fill="#FFD700" filter="url(#f1upyqb59v7eof)" rx="16.6667" ry="16.6667" style="stroke:#B8860B;stroke-width:1.0416666666666667;"/><path d="M105.7521,2908.0078 L105.7521,2964.2578 M78.6687,2924.6745 L132.8354,2924.6745 M105.7521,2964.2578 L78.6687,2995.5078 M105.7521,2964.2578 L132.8354,2995.5078 " fill="none" filter="url(#f1upyqb59v7eof)" style="stroke:#B8860B;stroke-width:1.0416666666666667;"/><rect fill="#FFE082" filter="url(#f1upyqb59v7eof)" height="65.1011" rx="8.3333" ry="8.3333" style="stroke:#B8860B;stroke-width:4.166666666666667;" width="262.5865" x="462.2091" y="214.9943"/><path d="M481.9747,236.8663 C481.6882,236.8663 481.4799,237.0746 481.4799,237.361 L481.4799,257.2308 C481.4799,257.5173 481.6882,257.7256 481.9747,257.7256 L494.032,257.7256 C494.3184,257.7256 494.5268,257.5173 494.5268,257.2308 L494.5268,237.361 C494.5268,237.0746 494.3184,236.8663 494.032,236.8663 L481.9747,236.8663 M484.0841,239.4704 L491.8966,239.4704 L491.8966,252.4913 L484.0841,252.4913 L484.0841,239.4704 M487.9903,253.7933 C488.7195,253.7933 489.2924,254.3663 489.2924,255.0954 C489.2924,255.8246 488.7195,256.3975 487.9903,256.3975 C487.2611,256.3975 486.6882,255.8246 486.6882,255.0954 C486.6882,254.3663 487.2611,253.7933 487.9903,253.7933 " fill="#1A1A1A" style="stroke:;stroke-width:0.0;stroke-dasharray:;"/><text fill="#1A1A1A" font-family="Arial" font-size="31.25" font-weight="bold" lengthAdjust="spacing" textLength="199.7375" x="510.4747" y="258.8898">Home Screen</text><rect fill="#FFE082" filter="url(#f1upyqb59v7eof)" height="65.1011" rx="8.3333" ry="8.3333" style="stroke:#B8860B;stroke-width:4.166666666666667;" width="262.5865" x="462.2091" y="2837.6984"/><path d="M481.9747,2859.5703 C481.6882,2859.5703 481.4799,2859.7786 481.4799,2860.0651 L481.4799,2879.9349 C481.4799,2880.2214 481.6882,2880.4297 481.9747,2880.4297 L494.032,2880.4297 C494.3184,2880.4297 494.5268,2880.2214 494.5268,2879.9349 L494.5268,2860.0651 C494.5268,2859.7786 494.3184,2859.5703 494.032,2859.5703 L481.9747,2859.5703 M484.0841,2862.1745 L491.8966,2862.1745 L491.8966,2875.1953 L484.0841,2875.1953 L484.0841,2862.1745 M487.9903,2876.4974 C488.7195,2876.4974 489.2924,2877.0703 489.2924,2877.7995 C489.2924,2878.5286 488.7195,2879.1016 487.9903,2879.1016 C487.2611,2879.1016 486.6882,2878.5286 486.6882,2877.7995 C486.6882,2877.0703 487.2611,2876.4974 487.9903,2876.4974 " fill="#1A1A1A" style="stroke:;stroke-width:0.0;stroke-dasharray:;"/><text fill="#1A1A1A" font-family="Arial" font-size="31.25" font-weight="bold" lengthAdjust="spacing" textLength="199.7375" x="510.4747" y="2881.5938">Home Screen</text><rect fill="#FFD54F" filter="url(#f1upyqb59v7eof)" height="65.1011" rx="8.3333" ry="8.3333" style="stroke:#B8860B;stroke-width:4.166666666666667;" width="241.6667" x="954.1611" y="214.9943"/><path d="M979.9423,236.8663 L978.6402,239.9652 C978.3798,240.0433 978.1454,240.1735 977.9111,240.3038 L974.8121,239.0017 L972.9371,240.8767 L974.2392,243.9756 C974.109,244.236 974.0048,244.4444 973.9007,244.7048 L970.8017,246.0069 L970.8017,248.611 L973.9007,249.9131 C974.0048,250.1735 974.109,250.3819 974.2392,250.6423 L972.9371,253.7413 L974.8121,255.6163 L977.9111,254.3142 C978.1454,254.4183 978.3798,254.5485 978.6402,254.6527 L979.9423,257.7517 L982.5465,257.7517 L983.8486,254.6527 C984.0829,254.5485 984.3434,254.4444 984.5777,254.3142 L987.6767,255.6163 L989.5517,253.7413 L988.2496,250.6423 C988.3538,250.4079 988.484,250.1475 988.5882,249.9131 L991.6871,248.611 L991.6871,246.0069 L988.5882,244.7048 C988.51,244.4704 988.3798,244.21 988.2496,243.9756 L989.5517,240.8767 L987.6767,239.0017 L984.5777,240.3038 C984.3434,240.1996 984.0829,240.0694 983.8486,239.9652 L982.5465,236.8663 L979.9423,236.8663 M981.2444,243.3767 C983.4059,243.3767 985.1507,245.1215 985.1507,247.2829 C985.1507,249.4444 983.4059,251.1892 981.2444,251.1892 C979.0829,251.1892 977.3382,249.4444 977.3382,247.2829 C977.3382,245.1215 979.0829,243.3767 981.2444,243.3767 " fill="#1A1A1A" style="stroke:;stroke-width:0.0;stroke-dasharray:;"/><text fill="#1A1A1A" font-family="Arial" font-size="31.25" font-weight="bold" lengthAdjust="spacing" textLength="178.8177" x="1002.4267" y="258.8898">Home BLoC</text><rect fill="#FFD54F" filter="url(#f1upyqb59v7eof)" height="65.1011" rx="8.3333" ry="8.3333" style="stroke:#B8860B;stroke-width:4.166666666666667;" width="241.6667" x="954.1611" y="2837.6984"/><path d="M979.9423,2859.5703 L978.6402,2862.6693 C978.3798,2862.7474 978.1454,2862.8776 977.9111,2863.0078 L974.8121,2861.7057 L972.9371,2863.5807 L974.2392,2866.6797 C974.109,2866.9401 974.0048,2867.1484 973.9007,2867.4089 L970.8017,2868.7109 L970.8017,2871.3151 L973.9007,2872.6172 C974.0048,2872.8776 974.109,2873.0859 974.2392,2873.3464 L972.9371,2876.4453 L974.8121,2878.3203 L977.9111,2877.0182 C978.1454,2877.1224 978.3798,2877.2526 978.6402,2877.3568 L979.9423,2880.4557 L982.5465,2880.4557 L983.8486,2877.3568 C984.0829,2877.2526 984.3434,2877.1484 984.5777,2877.0182 L987.6767,2878.3203 L989.5517,2876.4453 L988.2496,2873.3464 C988.3538,2873.112 988.484,2872.8516 988.5882,2872.6172 L991.6871,2871.3151 L991.6871,2868.7109 L988.5882,2867.4089 C988.51,2867.1745 988.3798,2866.9141 988.2496,2866.6797 L989.5517,2863.5807 L987.6767,2861.7057 L984.5777,2863.0078 C984.3434,2862.9036 984.0829,2862.7734 983.8486,2862.6693 L982.5465,2859.5703 L979.9423,2859.5703 M981.2444,2866.0807 C983.4059,2866.0807 985.1507,2867.8255 985.1507,2869.987 C985.1507,2872.1484 983.4059,2873.8932 981.2444,2873.8932 C979.0829,2873.8932 977.3382,2872.1484 977.3382,2869.987 C977.3382,2867.8255 979.0829,2866.0807 981.2444,2866.0807 " fill="#1A1A1A" style="stroke:;stroke-width:0.0;stroke-dasharray:;"/><text fill="#1A1A1A" font-family="Arial" font-size="31.25" font-weight="bold" lengthAdjust="spacing" textLength="178.8177" x="1002.4267" y="2881.5938">Home BLoC</text><rect fill="#FFCA28" filter="url(#f1upyqb59v7eof)" height="65.1011" rx="8.3333" ry="8.3333" style="stroke:#B8860B;stroke-width:4.166666666666667;" width="114.9424" x="1572.3348" y="214.9943"/><path d="M1600.7202,236.8663 C1597.5692,236.8663 1594.8088,239.1058 1594.2098,242.0746 C1591.3452,242.0746 1589.0015,244.4183 1589.0015,247.2829 C1589.0015,248.2465 1589.2879,249.1319 1589.7306,249.8871 L1595.5119,249.8871 L1600.7202,244.6788 L1605.9285,249.8871 L1609.6004,249.8871 C1609.7567,249.4704 1609.8348,249.0538 1609.8348,248.585 C1609.8348,246.8923 1608.741,245.2256 1607.2306,244.6788 L1607.2306,243.3767 C1607.2306,239.7829 1604.314,236.8663 1600.7202,236.8663 M1600.7202,248.585 L1594.2098,255.0954 L1599.4181,255.0954 L1599.4181,256.3975 A1.3021,1.3021 0 1 0 1602.0223,256.3975 L1602.0223,255.0954 L1607.2306,255.0954 L1600.7202,248.585 " fill="#1A1A1A" style="stroke:;stroke-width:0.0;stroke-dasharray:;"/><text fill="#1A1A1A" font-family="Arial" font-size="31.25" font-weight="bold" lengthAdjust="spacing" textLength="52.0935" x="1620.6004" y="258.8898">API</text><rect fill="#FFCA28" filter="url(#f1upyqb59v7eof)" height="65.1011" rx="8.3333" ry="8.3333" style="stroke:#B8860B;stroke-width:4.166666666666667;" width="114.9424" x="1572.3348" y="2837.6984"/><path d="M1600.7202,2859.5703 C1597.5692,2859.5703 1594.8088,2861.8099 1594.2098,2864.7786 C1591.3452,2864.7786 1589.0015,2867.1224 1589.0015,2869.987 C1589.0015,2870.9505 1589.2879,2871.8359 1589.7306,2872.5911 L1595.5119,2872.5911 L1600.7202,2867.3828 L1605.9285,2872.5911 L1609.6004,2872.5911 C1609.7567,2872.1745 1609.8348,2871.7578 1609.8348,2871.2891 C1609.8348,2869.5964 1608.741,2867.9297 1607.2306,2867.3828 L1607.2306,2866.0807 C1607.2306,2862.487 1604.314,2859.5703 1600.7202,2859.5703 M1600.7202,2871.2891 L1594.2098,2877.7995 L1599.4181,2877.7995 L1599.4181,2879.1016 A1.3021,1.3021 0 1 0 1602.0223,2879.1016 L1602.0223,2877.7995 L1607.2306,2877.7995 L1600.7202,2871.2891 " fill="#1A1A1A" style="stroke:;stroke-width:0.0;stroke-dasharray:;"/><text fill="#1A1A1A" font-family="Arial" font-size="31.25" font-weight="bold" lengthAdjust="spacing" textLength="52.0935" x="1620.6004" y="2881.5938">API</text><rect fill="#FFA000" filter="url(#f1upyqb59v7eof)" height="65.1011" rx="8.3333" ry="8.3333" style="stroke:#B8860B;stroke-width:4.166666666666667;" width="223.7467" x="1908.9381" y="214.9943"/><text fill="#1A1A1A" font-family="Arial" font-size="31.25" font-weight="bold" lengthAdjust="spacing" textLength="185.8978" x="1932.2037" y="258.8898">Flask Server</text><rect fill="#FFA000" filter="url(#f1upyqb59v7eof)" height="65.1011" rx="8.3333" ry="8.3333" style="stroke:#B8860B;stroke-width:4.166666666666667;" width="223.7467" x="1908.9381" y="2837.6984"/><text fill="#1A1A1A" font-family="Arial" font-size="31.25" font-weight="bold" lengthAdjust="spacing" textLength="185.8978" x="1932.2037" y="2881.5938">Flask Server</text><rect fill="#FF8F00" filter="url(#f1upyqb59v7eof)" height="65.1011" rx="8.3333" ry="8.3333" style="stroke:#B8860B;stroke-width:4.166666666666667;" width="213.9872" x="2183.9188" y="214.9943"/><path d="M2200.8198,236.8663 C2200.6636,236.8663 2200.5854,236.9704 2200.5854,237.1006 L2200.5854,252.2308 C2200.5854,252.361 2200.6896,252.4652 2200.8198,252.4652 L2216.2104,252.4652 L2221.4188,257.6735 L2221.4188,237.0746 C2221.4188,236.9183 2221.3146,236.8402 2221.1844,236.8402 L2200.8458,236.8402 " fill="#1A1A1A" style="stroke:;stroke-width:0.0;stroke-dasharray:;"/><text fill="#1A1A1A" font-family="Arial" font-size="31.25" font-weight="bold" lengthAdjust="spacing" textLength="151.1383" x="2232.1843" y="258.8898">AI Service</text><rect fill="#FF8F00" filter="url(#f1upyqb59v7eof)" height="65.1011" rx="8.3333" ry="8.3333" style="stroke:#B8860B;stroke-width:4.166666666666667;" width="213.9872" x="2183.9188" y="2837.6984"/><path d="M2200.8198,2859.5703 C2200.6636,2859.5703 2200.5854,2859.6745 2200.5854,2859.8047 L2200.5854,2874.9349 C2200.5854,2875.0651 2200.6896,2875.1693 2200.8198,2875.1693 L2216.2104,2875.1693 L2221.4188,2880.3776 L2221.4188,2859.7786 C2221.4188,2859.6224 2221.3146,2859.5443 2221.1844,2859.5443 L2200.8458,2859.5443 " fill="#1A1A1A" style="stroke:;stroke-width:0.0;stroke-dasharray:;"/><text fill="#1A1A1A" font-family="Arial" font-size="31.25" font-weight="bold" lengthAdjust="spacing" textLength="151.1383" x="2232.1843" y="2881.5938">AI Service</text><rect fill="#FFD700" filter="url(#f1upyqb59v7eof)" height="62.7055" style="stroke:#181818;stroke-width:2.0833333333333335;" width="20.8333" x="1067.7027" y="987.5661"/><rect fill="#FFD700" filter="url(#f1upyqb59v7eof)" height="62.7055" style="stroke:#181818;stroke-width:2.0833333333333335;" width="20.8333" x="1067.7027" y="1272.346"/><rect fill="#FFD700" filter="url(#f1upyqb59v7eof)" height="403.3162" style="stroke:#181818;stroke-width:2.0833333333333335;" width="20.8333" x="1067.7027" y="1557.1259"/><rect fill="#FFA000" filter="url(#f1upyqb59v7eof)" height="152.4943" style="stroke:#181818;stroke-width:2.0833333333333335;" width="20.8333" x="2013.5198" y="1682.5368"/><rect fill="#FF8F00" filter="url(#f1upyqb59v7eof)" height="62.7055" style="stroke:#181818;stroke-width:2.0833333333333335;" width="20.8333" x="2283.6207" y="2427.713"/><rect fill="#FFD700" filter="url(#f1upyqb59v7eof)" height="6.25" rx="8.3333" ry="8.3333" style="stroke:#FFD700;stroke-width:2.0833333333333335;" width="2424.9893" x="0" y="355.5105"/><line style="stroke:#B8860B;stroke-width:2.0833333333333335;" x1="0" x2="2424.9893" y1="355.5105" y2="355.5105"/><line style="stroke:#B8860B;stroke-width:2.0833333333333335;" x1="0" x2="2424.9893" y1="361.7605" y2="361.7605"/><rect fill="#FFD700" filter="url(#f1upyqb59v7eof)" height="54.9967" rx="8.3333" ry="8.3333" style="stroke:#B8860B;stroke-width:4.166666666666667;" width="229.1504" x="1097.9195" y="330.0954"/><text fill="#000000" font-family="Arial" font-size="33.3333" font-weight="bold" lengthAdjust="spacing" textLength="190.7227" x="1110.4195" y="369.695">App Startup</text><polygon fill="#E65100" points="571.6273,443.631,592.4606,451.9643,571.6273,460.2976,579.9606,451.9643" style="stroke:#E65100;stroke-width:2.0833333333333335;"/><line style="stroke:#E65100;stroke-width:4.166666666666667;" x1="105.7521" x2="584.1273" y1="451.9643" y2="451.9643"/><text fill="#000000" font-family="Arial" font-size="29.1667" font-weight="bold" lengthAdjust="spacing" textLength="168.5059" x="266.9367" y="441.6168">Launch App</text><polygon fill="#E65100" points="1607.931,506.3365,1628.7643,514.6698,1607.931,523.0031,1616.2643,514.6698" style="stroke:#E65100;stroke-width:2.0833333333333335;"/><line style="stroke:#E65100;stroke-width:4.166666666666667;" x1="596.6273" x2="1620.431" y1="514.6698" y2="514.6698"/><text fill="#000000" font-family="Arial" font-size="29.1667" font-weight="bold" lengthAdjust="spacing" textLength="346.8953" x="941.3315" y="504.3223">Check server connection</text><polygon fill="#E65100" points="1998.9365,569.042,2019.7698,577.3753,1998.9365,585.7086,2007.2698,577.3753" style="stroke:#E65100;stroke-width:2.0833333333333335;"/><line style="stroke:#E65100;stroke-width:4.166666666666667;" x1="1632.931" x2="2011.4365" y1="577.3753" y2="577.3753"/><text fill="#000000" font-family="Arial" font-size="29.1667" font-weight="bold" lengthAdjust="spacing" textLength="162.0544" x="1747.4065" y="567.0278">GET /health</text><polygon fill="#E65100" points="1655.8477,631.7474,1635.0143,640.0808,1655.8477,648.4141,1647.5143,640.0808" style="stroke:#E65100;stroke-width:2.0833333333333335;"/><line style="stroke:#E65100;stroke-width:4.166666666666667;stroke-dasharray:2.0,2.0;" x1="1643.3477" x2="2021.8531" y1="640.0808" y2="640.0808"/><text fill="#000000" font-family="Arial" font-size="29.1667" font-weight="bold" lengthAdjust="spacing" textLength="100.5168" x="1778.1754" y="629.7333">200 OK</text><polygon fill="#E65100" points="619.544,694.4529,598.7106,702.7863,619.544,711.1196,611.2106,702.7863" style="stroke:#E65100;stroke-width:2.0833333333333335;"/><line style="stroke:#E65100;stroke-width:4.166666666666667;stroke-dasharray:2.0,2.0;" x1="607.044" x2="1630.8477" y1="702.7863" y2="702.7863"/><text fill="#000000" font-family="Arial" font-size="29.1667" font-weight="bold" lengthAdjust="spacing" textLength="150.7039" x="1039.4272" y="692.4388">Connected</text><polygon fill="#E65100" points="128.6687,757.1584,107.8354,765.4917,128.6687,773.8251,120.3354,765.4917" style="stroke:#E65100;stroke-width:2.0833333333333335;"/><line style="stroke:#E65100;stroke-width:4.166666666666667;stroke-dasharray:2.0,2.0;" x1="116.1687" x2="594.544" y1="765.4917" y2="765.4917"/><text fill="#000000" font-family="Arial" font-size="29.1667" font-weight="bold" lengthAdjust="spacing" textLength="226.9246" x="237.7274" y="755.1442">Home Tab ready</text><rect fill="#FFD700" filter="url(#f1upyqb59v7eof)" height="6.25" rx="8.3333" ry="8.3333" style="stroke:#FFD700;stroke-width:2.0833333333333335;" width="2424.9893" x="0" y="828.4068"/><line style="stroke:#B8860B;stroke-width:2.0833333333333335;" x1="0" x2="2424.9893" y1="828.4068" y2="828.4068"/><line style="stroke:#B8860B;stroke-width:2.0833333333333335;" x1="0" x2="2424.9893" y1="834.6568" y2="834.6568"/><rect fill="#FFD700" filter="url(#f1upyqb59v7eof)" height="54.9967" rx="8.3333" ry="8.3333" style="stroke:#B8860B;stroke-width:4.166666666666667;" width="410.7747" x="1007.1073" y="802.9917"/><text fill="#000000" font-family="Arial" font-size="33.3333" font-weight="bold" lengthAdjust="spacing" textLength="372.347" x="1019.6073" y="842.5913">Select &amp; Capture Image</text><polygon fill="#E65100" points="571.6273,916.5273,592.4606,924.8606,571.6273,933.194,579.9606,924.8606" style="stroke:#E65100;stroke-width:2.0833333333333335;"/><line style="stroke:#E65100;stroke-width:4.166666666666667;" x1="105.7521" x2="584.1273" y1="924.8606" y2="924.8606"/><text fill="#000000" font-family="Arial" font-size="29.1667" font-weight="bold" lengthAdjust="spacing" textLength="290.1855" x="206.0969" y="914.5131">Tap Camera / Gallery</text><polygon fill="#E65100" points="1042.7027,979.2328,1063.5361,987.5661,1042.7027,995.8995,1051.0361,987.5661" style="stroke:#E65100;stroke-width:2.0833333333333335;"/><line style="stroke:#E65100;stroke-width:4.166666666666667;" x1="596.6273" x2="1055.2027" y1="987.5661" y2="987.5661"/><text fill="#000000" font-family="Arial" font-size="29.1667" font-weight="bold" lengthAdjust="spacing" textLength="338.7919" x="662.7691" y="977.2186">PickImageEvent(source)</text><polygon fill="#E65100" points="619.544,1041.9383,598.7106,1050.2716,619.544,1058.6049,611.2106,1050.2716" style="stroke:#E65100;stroke-width:2.0833333333333335;"/><line style="stroke:#E65100;stroke-width:4.166666666666667;stroke-dasharray:2.0,2.0;" x1="607.044" x2="1076.0361" y1="1050.2716" y2="1050.2716"/><text fill="#000000" font-family="Arial" font-size="29.1667" font-weight="bold" lengthAdjust="spacing" textLength="395.5017" x="639.6225" y="1039.9241">Image captured &amp; previewed</text><rect fill="#FFD700" filter="url(#f1upyqb59v7eof)" height="6.25" rx="8.3333" ry="8.3333" style="stroke:#FFD700;stroke-width:2.0833333333333335;" width="2424.9893" x="0" y="1113.1866"/><line style="stroke:#B8860B;stroke-width:2.0833333333333335;" x1="0" x2="2424.9893" y1="1113.1866" y2="1113.1866"/><line style="stroke:#B8860B;stroke-width:2.0833333333333335;" x1="0" x2="2424.9893" y1="1119.4366" y2="1119.4366"/><rect fill="#FFD700" filter="url(#f1upyqb59v7eof)" height="54.9967" rx="8.3333" ry="8.3333" style="stroke:#B8860B;stroke-width:4.166666666666667;" width="379.2969" x="1022.8462" y="1087.7716"/><text fill="#000000" font-family="Arial" font-size="33.3333" font-weight="bold" lengthAdjust="spacing" textLength="340.8691" x="1035.3462" y="1127.3712">Select Analysis Mode</text><polygon fill="#E65100" points="571.6273,1201.3072,592.4606,1209.6405,571.6273,1217.9738,579.9606,1209.6405" style="stroke:#E65100;stroke-width:2.0833333333333335;"/><line style="stroke:#E65100;stroke-width:4.166666666666667;" x1="105.7521" x2="584.1273" y1="1209.6405" y2="1209.6405"/><text fill="#000000" font-family="Arial" font-size="29.1667" font-weight="bold" lengthAdjust="spacing" textLength="440.8752" x="130.7521" y="1199.293">Tap Classify / Detect / Diagnose</text><polygon fill="#E65100" points="1042.7027,1264.0127,1063.5361,1272.346,1042.7027,1280.6793,1051.0361,1272.346" style="stroke:#E65100;stroke-width:2.0833333333333335;"/><line style="stroke:#E65100;stroke-width:4.166666666666667;" x1="596.6273" x2="1055.2027" y1="1272.346" y2="1272.346"/><text fill="#000000" font-family="Arial" font-size="29.1667" font-weight="bold" lengthAdjust="spacing" textLength="359.7412" x="652.2944" y="1261.9985">ChangeModeEvent(mode)</text><polygon fill="#E65100" points="619.544,1326.7181,598.7106,1335.0515,619.544,1343.3848,611.2106,1335.0515" style="stroke:#E65100;stroke-width:2.0833333333333335;"/><line style="stroke:#E65100;stroke-width:4.166666666666667;stroke-dasharray:2.0,2.0;" x1="607.044" x2="1076.0361" y1="1335.0515" y2="1335.0515"/><text fill="#000000" font-family="Arial" font-size="29.1667" font-weight="bold" lengthAdjust="spacing" textLength="200.9908" x="736.878" y="1324.704">Mode selected</text><rect fill="#FFD700" filter="url(#f1upyqb59v7eof)" height="6.25" rx="8.3333" ry="8.3333" style="stroke:#FFD700;stroke-width:2.0833333333333335;" width="2424.9893" x="0" y="1397.9665"/><line style="stroke:#B8860B;stroke-width:2.0833333333333335;" x1="0" x2="2424.9893" y1="1397.9665" y2="1397.9665"/><line style="stroke:#B8860B;stroke-width:2.0833333333333335;" x1="0" x2="2424.9893" y1="1404.2165" y2="1404.2165"/><rect fill="#FFD700" filter="url(#f1upyqb59v7eof)" height="54.9967" rx="8.3333" ry="8.3333" style="stroke:#B8860B;stroke-width:4.166666666666667;" width="271.875" x="1076.5572" y="1372.5515"/><text fill="#000000" font-family="Arial" font-size="33.3333" font-weight="bold" lengthAdjust="spacing" textLength="233.4473" x="1089.0572" y="1412.1511">Analyse Image</text><polygon fill="#E65100" points="571.6273,1486.087,592.4606,1494.4204,571.6273,1502.7537,579.9606,1494.4204" style="stroke:#E65100;stroke-width:2.0833333333333335;"/><line style="stroke:#E65100;stroke-width:4.166666666666667;" x1="105.7521" x2="584.1273" y1="1494.4204" y2="1494.4204"/><text fill="#000000" font-family="Arial" font-size="29.1667" font-weight="bold" lengthAdjust="spacing" textLength="340.4012" x="180.9891" y="1484.0729">Tap "START ANALYSIS"</text><polygon fill="#E65100" points="1042.7027,1548.7925,1063.5361,1557.1259,1042.7027,1565.4592,1051.0361,1557.1259" style="stroke:#E65100;stroke-width:2.0833333333333335;"/><line style="stroke:#E65100;stroke-width:4.166666666666667;" x1="596.6273" x2="1055.2027" y1="1557.1259" y2="1557.1259"/><text fill="#000000" font-family="Arial" font-size="29.1667" font-weight="bold" lengthAdjust="spacing" textLength="293.3757" x="685.4772" y="1546.7784">AnalyzeImageEvent()</text><polygon fill="#E65100" points="1607.931,1611.498,1628.7643,1619.8313,1607.931,1628.1647,1616.2643,1619.8313" style="stroke:#E65100;stroke-width:2.0833333333333335;"/><line style="stroke:#E65100;stroke-width:4.166666666666667;" x1="1088.5361" x2="1620.431" y1="1619.8313" y2="1619.8313"/><text fill="#000000" font-family="Arial" font-size="29.1667" font-weight="bold" lengthAdjust="spacing" textLength="494.3949" x="1113.5361" y="1609.4838">POST /api/{mode} { image: base64 }</text><polygon fill="#E65100" points="1988.5198,1674.2035,2009.3531,1682.5368,1988.5198,1690.8702,1996.8531,1682.5368" style="stroke:#E65100;stroke-width:2.0833333333333335;"/><line style="stroke:#E65100;stroke-width:4.166666666666667;" x1="1632.931" x2="2001.0198" y1="1682.5368" y2="1682.5368"/><text fill="#000000" font-family="Arial" font-size="29.1667" font-weight="bold" lengthAdjust="spacing" textLength="274.7335" x="1685.8587" y="1672.1893">Send image + mode</text><line style="stroke:#E65100;stroke-width:4.166666666666667;" x1="2034.3531" x2="2121.8531" y1="1745.2423" y2="1745.2423"/><line style="stroke:#E65100;stroke-width:4.166666666666667;" x1="2121.8531" x2="2121.8531" y1="1745.2423" y2="1772.3256"/><line style="stroke:#E65100;stroke-width:4.166666666666667;" x1="2036.4365" x2="2121.8531" y1="1772.3256" y2="1772.3256"/><polygon fill="#E65100" points="2057.2698,1763.9923,2036.4365,1772.3256,2057.2698,1780.659,2048.9365,1772.3256" style="stroke:#E65100;stroke-width:2.0833333333333335;"/><text fill="#000000" font-family="Arial" font-size="29.1667" font-weight="bold" lengthAdjust="spacing" textLength="199.2676" x="2048.9365" y="1734.8948">Run ML Model</text><polygon fill="#E65100" points="1655.8477,1826.6978,1635.0143,1835.0311,1655.8477,1843.3645,1647.5143,1835.0311" style="stroke:#E65100;stroke-width:2.0833333333333335;"/><line style="stroke:#E65100;stroke-width:4.166666666666667;stroke-dasharray:2.0,2.0;" x1="1643.3477" x2="2021.8531" y1="1835.0311" y2="1835.0311"/><text fill="#000000" font-family="Arial" font-size="29.1667" font-weight="bold" lengthAdjust="spacing" textLength="330.5888" x="1663.1393" y="1824.6836">Return prediction result</text><polygon fill="#E65100" points="1111.4527,1889.4033,1090.6194,1897.7366,1111.4527,1906.0699,1103.1194,1897.7366" style="stroke:#E65100;stroke-width:2.0833333333333335;"/><line style="stroke:#E65100;stroke-width:4.166666666666667;stroke-dasharray:2.0,2.0;" x1="1098.9527" x2="1630.8477" y1="1897.7366" y2="1897.7366"/><text fill="#000000" font-family="Arial" font-size="29.1667" font-weight="bold" lengthAdjust="spacing" textLength="231.7525" x="1244.8573" y="1887.3891">PredictionResult</text><polygon fill="#E65100" points="619.544,1952.1088,598.7106,1960.4421,619.544,1968.7754,611.2106,1960.4421" style="stroke:#E65100;stroke-width:2.0833333333333335;"/><line style="stroke:#E65100;stroke-width:4.166666666666667;stroke-dasharray:2.0,2.0;" x1="607.044" x2="1076.0361" y1="1960.4421" y2="1960.4421"/><text fill="#000000" font-family="Arial" font-size="29.1667" font-weight="bold" lengthAdjust="spacing" textLength="256.1198" x="709.3135" y="1950.0946">Analysis complete</text><rect fill="#FFD700" filter="url(#f1upyqb59v7eof)" height="6.25" rx="8.3333" ry="8.3333" style="stroke:#FFD700;stroke-width:2.0833333333333335;" width="2424.9893" x="0" y="2023.3571"/><line style="stroke:#B8860B;stroke-width:2.0833333333333335;" x1="0" x2="2424.9893" y1="2023.3571" y2="2023.3571"/><line style="stroke:#B8860B;stroke-width:2.0833333333333335;" x1="0" x2="2424.9893" y1="2029.6071" y2="2029.6071"/><rect fill="#FFD700" filter="url(#f1upyqb59v7eof)" height="54.9967" rx="8.3333" ry="8.3333" style="stroke:#B8860B;stroke-width:4.166666666666667;" width="244.0592" x="1090.465" y="1997.9421"/><text fill="#000000" font-family="Arial" font-size="33.3333" font-weight="bold" lengthAdjust="spacing" textLength="205.6315" x="1102.965" y="2037.5417">View Results</text><polygon fill="#E65100" points="128.6687,2111.4777,107.8354,2119.811,128.6687,2128.1443,120.3354,2119.811" style="stroke:#E65100;stroke-width:2.0833333333333335;"/><line style="stroke:#E65100;stroke-width:4.166666666666667;stroke-dasharray:2.0,2.0;" x1="116.1687" x2="594.544" y1="2119.811" y2="2119.811"/><text fill="#000000" font-family="Arial" font-size="29.1667" font-weight="bold" lengthAdjust="spacing" textLength="332.2693" x="185.055" y="2109.4635">Navigate to Result Page</text><path d="M10.4167,2155.2277 L10.4167,2259.3943 A8.3333,8.3333 0 0 0 18.75,2267.7277 L683.3333,2267.7277 A8.3333,8.3333 0 0 0 691.6667,2259.3943 L691.6667,2167.7277 L670.8333,2146.8943 L18.75,2146.8943 A8.3333,8.3333 0 0 0 10.4167,2155.2277 " fill="#FFECB3" filter="url(#f1upyqb59v7eof)" style="stroke:#FFB300;stroke-width:1.0416666666666667;"/><path d="M670.8333,2146.8943 L670.8333,2163.561 A4.1667,4.1667 0 0 0 675,2167.7277 L691.6667,2167.7277 L670.8333,2146.8943 " fill="#FFECB3" style="stroke:#FFB300;stroke-width:1.0416666666666667;"/><text fill="#000000" font-family="Arial" font-size="29.1667" font-weight="bold" lengthAdjust="spacing" textLength="492.7714" x="88.296" y="2184.669">Disease Name &#194;&#183; Confidence Score</text><text fill="#000000" font-family="Arial" font-size="29.1667" font-weight="bold" lengthAdjust="spacing" textLength="502.3702" x="88.296" y="2218.2078">Bounding Boxes &#194;&#183; Affected Area %</text><text fill="#000000" font-family="Arial" font-size="29.1667" font-weight="bold" lengthAdjust="spacing" textLength="489.4958" x="88.296" y="2251.7466">Severity Level &#194;&#183; Top-3 Predictions</text><rect fill="#FFD700" filter="url(#f1upyqb59v7eof)" height="6.25" rx="8.3333" ry="8.3333" style="stroke:#FFD700;stroke-width:2.0833333333333335;" width="2424.9893" x="0" y="2331.2592"/><line style="stroke:#B8860B;stroke-width:2.0833333333333335;" x1="0" x2="2424.9893" y1="2331.2592" y2="2331.2592"/><line style="stroke:#B8860B;stroke-width:2.0833333333333335;" x1="0" x2="2424.9893" y1="2337.5092" y2="2337.5092"/><rect fill="#FFD700" filter="url(#f1upyqb59v7eof)" height="54.9967" rx="8.3333" ry="8.3333" style="stroke:#B8860B;stroke-width:4.166666666666667;" width="531.1035" x="946.9429" y="2305.8441"/><text fill="#000000" font-family="Arial" font-size="33.3333" font-weight="bold" lengthAdjust="spacing" textLength="492.6758" x="959.4429" y="2345.4437">AI Treatment Recommendation</text><polygon fill="#E65100" points="2258.6207,2419.3797,2279.454,2427.713,2258.6207,2436.0463,2266.954,2427.713" style="stroke:#E65100;stroke-width:2.0833333333333335;"/><line style="stroke:#E65100;stroke-width:4.166666666666667;" x1="596.6273" x2="2271.1207" y1="2427.713" y2="2427.713"/><text fill="#000000" font-family="Arial" font-size="29.1667" font-weight="bold" lengthAdjust="spacing" textLength="351.7375" x="1264.2553" y="2417.3655">Get treatment for disease</text><polygon fill="#E65100" points="619.544,2482.0852,598.7106,2490.4185,619.544,2498.7518,611.2106,2490.4185" style="stroke:#E65100;stroke-width:2.0833333333333335;"/><line style="stroke:#E65100;stroke-width:4.166666666666667;stroke-dasharray:2.0,2.0;" x1="607.044" x2="2291.954" y1="2490.4185" y2="2490.4185"/><text fill="#000000" font-family="Arial" font-size="29.1667" font-weight="bold" lengthAdjust="spacing" textLength="401.9674" x="1244.3487" y="2480.071">Stream recommendation text</text><polygon fill="#E65100" points="128.6687,2544.7906,107.8354,2553.124,128.6687,2561.4573,120.3354,2553.124" style="stroke:#E65100;stroke-width:2.0833333333333335;"/><line style="stroke:#E65100;stroke-width:4.166666666666667;stroke-dasharray:2.0,2.0;" x1="116.1687" x2="594.544" y1="2553.124" y2="2553.124"/><text fill="#000000" font-family="Arial" font-size="29.1667" font-weight="bold" lengthAdjust="spacing" textLength="343.6625" x="179.3584" y="2542.7765">Display treatment advice</text><rect fill="#FFD700" filter="url(#f1upyqb59v7eof)" height="6.25" rx="8.3333" ry="8.3333" style="stroke:#FFD700;stroke-width:2.0833333333333335;" width="2424.9893" x="0" y="2616.039"/><line style="stroke:#B8860B;stroke-width:2.0833333333333335;" x1="0" x2="2424.9893" y1="2616.039" y2="2616.039"/><line style="stroke:#B8860B;stroke-width:2.0833333333333335;" x1="0" x2="2424.9893" y1="2622.289" y2="2622.289"/><rect fill="#FFD700" filter="url(#f1upyqb59v7eof)" height="54.9967" rx="8.3333" ry="8.3333" style="stroke:#B8860B;stroke-width:4.166666666666667;" width="281.1035" x="1071.9429" y="2590.624"/><text fill="#000000" font-family="Arial" font-size="33.3333" font-weight="bold" lengthAdjust="spacing" textLength="242.6758" x="1084.4429" y="2630.2236">Save to History</text><line style="stroke:#E65100;stroke-width:4.166666666666667;" x1="596.6273" x2="684.1273" y1="2712.4929" y2="2712.4929"/><line style="stroke:#E65100;stroke-width:4.166666666666667;" x1="684.1273" x2="684.1273" y1="2712.4929" y2="2739.5762"/><line style="stroke:#E65100;stroke-width:4.166666666666667;" x1="598.7106" x2="684.1273" y1="2739.5762" y2="2739.5762"/><polygon fill="#E65100" points="619.544,2731.2429,598.7106,2739.5762,619.544,2747.9095,611.2106,2739.5762" style="stroke:#E65100;stroke-width:2.0833333333333335;"/><text fill="#000000" font-family="Arial" font-size="29.1667" font-weight="bold" lengthAdjust="spacing" textLength="452.3254" x="611.2106" y="2702.1454">Save scan to SharedPreferences</text><polygon fill="#E65100" points="128.6687,2793.9484,107.8354,2802.2817,128.6687,2810.615,120.3354,2802.2817" style="stroke:#E65100;stroke-width:2.0833333333333335;"/><line style="stroke:#E65100;stroke-width:4.166666666666667;stroke-dasharray:2.0,2.0;" x1="116.1687" x2="594.544" y1="2802.2817" y2="2802.2817"/><text fill="#000000" font-family="Arial" font-size="29.1667" font-weight="bold" lengthAdjust="spacing" textLength="363.088" x="169.6457" y="2791.9342">Scan saved in History Tab</text><!--SRC=[ZLPjR-964FxkNp6YwgbL6q7UAKgG384SQfABObAf7pVs0AkONT-kJOuxtPV-gNvl_rXdrWRRn25Df0GppymyyypihEspL8amOWaHpaGMfsEjqa1-HJWyzMoZCLt724ywZfhjTsA9u1ifugezaN3KwNYLhon-pb25w1kZNwOB6Juhj1QEteAKn4xsGfherL137Mi3FupEJW-9KGaA2j0jqH1pz6CvLqjKAOJq1qsL-xqmgGnb8jGRUkq2caZjO0fQXpx_DiC68doU6vsfg02FnrVdjHggO6qYD0LmqEsUTGRxWCqTgC3kHHH9DOVJgX1-c6hJB45fQYhUMT-l9uSrLDBGjskAb3HFoMj84wSQQfyg3S1D0QVduyFpjw7Hkg7cyM_3asf1Tph51jXeE3ZUHTLoZmV7DV4OqQp7rbBAqC3vIguaXIz3dBq3sYTgWNk_vRiE-vi_q5-Q-MqCJPp8rjI6ur5d1zJGsYgY8SRLgDhzXzne51heLcjSY4Y_y6bAJOQUbygKM5w47APNLDc_i5HKxwZRvvEt3aAXBjhyLV-YxO1zW0BIwMz4WoifvfIXG7gUu0C4hOiF2HghLHyUBPeML7w4XKV-l-b4KXvvvxVG2llmKTDM3qA3g5hiufvvA3lTersNKCyBXy6D7hOsMGQn3bsMqvFnAvTOPz51biHQH7tmxoSjv-BJjS4kG_-ek-j2TQoGH1Z7mZxJrF2JenQO5VludTV5X7h96_t0Viw4eQhyYNEK8JfFUYJ7xfWlgijBofv0a5A4B87BI-yH3egoUd0ZCXKk6E6vRyZ2N7imN63u33at2BLI6APIAu-j169kXBeUJQ6zG16d2u-_EjZwqoK9dtxFuMMwOHu8eo8RMHuvZdkQYYSmAAAr8nrWJ4Zu04EHf9b1c2pfCjlbFnK90PPe1BJXMiGnclMs4jUe7jpJwdFEenLfzfFLcGdnPvuekH8fbltagN4F5SPvrZ3d416TnE1AuWkL464jH9MrhqIyjjB2hOwQELEphPojYVKLfkpITYEljCLT_iE5K7FaI7a1I_hqV-cx_DQHUeDnJdMFlArWwZzCmR_pR_uC9a5hbvuBy1Kh2kydbqy8z-LJGDCZ4jd-nYLzXsyWEKWFdeJ5inFuNfisyWXGHJa6VW7sAHDL3ukRnDBh8LDmU-EaY6jJoZQalYfkQYJTWDC4Mde1h4f5BjivtepK5l-GmtTrtmu0dTGafWutQly73HBa4InBNpaKFRWJApbdUAeB3Bt5pD5JTEU1vcFv-6kvllXE1HeXYwGTk7VNV__wvsy-SJEwVdYb1g4sIA01BtFUsNGpeCrX_cpcHeHUU570ZuGAa5B8T0qtz27EKLET71nNYhSUDuG9vQCqWIcvf-vbym7p9HK99-ksEhUiQ7DWIdV61ZoZtHxbtCkMLhOOVQo86x3ZaZfLov3YbrhR_4bTJz8cYSMwabL4l37pSojMJkYFqj8ziwxItIHbXANBYs5qxv489CGC3MjhQ_kCqGoqv4BpghPHQSDv_m40]--></g></svg>